<?xml version="1.0" encoding="utf-8"?>
<!-- Generator: Adobe Illustrator 24.2.1, SVG Export Plug-In . SVG Version: 6.00 Build 0)  -->
<svg version="1.1" id="Layer_1" xmlns="http://www.w3.org/2000/svg" xmlns:xlink="http://www.w3.org/1999/xlink" x="0px" y="0px"
	 viewBox="0 0 350 350" style="enable-background:new 0 0 350 350;" xml:space="preserve">
<style type="text/css">
	.st0{fill:#151515;}
	.st1{fill:#FFCE02;}
</style>
<g>
	<circle class="st0" cx="175" cy="175" r="169.3"/>
	<g>
		<path class="st1" d="M186.2,186.2l-0.9-0.3l-1.7-1.9l-0.3-2.4l-1.8-0.4l-2.1-0.6l-1.2-0.8l-1-0.6l-2,1.3l0.1-1.2l-1.1,0.3
			l-1.5,0.9l-1.2,0.1l-2.6,1.1l-2.5,0.7l-1.2,3.6l-1.1,0.4l0.8,1.1l0.2,1.5l-1.5,0.6l1.7,0.9l-1,1.1l1.8,1.7l1.3,2.2h1.5l1.6,0.7
			l2.4,0.9l0.9-0.2l1.1,1.5l0.9-1.2l1.8-0.1l0.6,0.6l1.2-0.9l1.6-0.5l1.7-1.9l0.8-0.4l2.2-1.8l0.2-2.7l-0.5-2L186.2,186.2z
			 M171.2,188.9l3.9-4l4,4l-4,4L171.2,188.9z M244.6,117.6c-3.5,5.5-7.5,9.3-12,13.3C231.8,128,239.1,120,244.6,117.6z M226.6,134
			c-4.3,4.2-8.5,8.5-12.7,12.8c-1.5,1.5-0.4,2.5,1.4,3.9c4.7-5.7,9.3-11.3,13.9-16.9c-0.2-0.3-0.5-0.5-0.7-0.8
			C227.8,133.4,227,133.6,226.6,134z M198.6,139c0.1,0.1,0.2,0.1,0.2,0.1c0.4,0,1.1-0.3,1.3-0.6c0.5-0.6,0.8-1.3,1.1-2
			c9.9-20.1,19-40.6,26.4-61.8c0.4-1.1,0.8-2.2,1.1-3.4c-0.2-0.1-0.3-0.1-0.4-0.2c-0.3,0.4-0.6,0.7-0.8,1.1
			c-10.4,20.7-21.2,41.2-29.3,63c-0.3,0.7-0.6,1.5-0.6,2.2C197.8,138,198.1,138.8,198.6,139z M153,136.1c0.6,1.2,2.1,3,2.6,3h0.1
			c2.3-1,0.6-2.8,0.2-4.1c-7.1-19.9-17-38.5-26.3-57.4c-1.1-2.1-2.2-4.2-3.3-6.3c-0.2,0.1-0.4,0.1-0.6,0.2c0.3,1.1,0.7,2.1,1.1,3.2
			C134.1,95.7,143.1,116,153,136.1z M110.5,120.1c2.8,5,6.7,9,11.4,12.7C122.4,129.8,115.9,122.7,110.5,120.1z M140.2,148.5
			c-4-4-7.9-8-11.9-12c-0.7-0.7-1.6-0.9-2.5-1.4c-0.2,0.2-0.3,0.4-0.5,0.6c0.5,0.7,0.9,1.6,1.5,2.2c3.6,4.4,7.1,8.7,10.8,12.9
			c0.4,0.5,1.6,1.1,2.2,1.1c0.2,0,0.3,0,0.4-0.1C141.7,150.9,141.4,149.6,140.2,148.5z M123.8,181.4c-9.8-2.3-19.6-4.9-29.5-7.2
			c-0.3-0.1-0.6-0.1-0.9-0.1c-0.8,0-1.8,0.2-3,0.2c2.2,2.9,27.5,10.7,35.9,11.6C127,183.4,126.4,182,123.8,181.4z M177.3,124.2
			c-0.1-8.9-0.3-17.8-0.5-26.7c0-0.9-0.4-1.9-0.7-2.8c-0.4,0.1-0.8,0.1-1.1,0.1c-0.5,10.9-1,21.7-1.5,32.7
			C176.9,126.9,177.3,126.8,177.3,124.2z M134.1,161.6c-14.9-6.5-29.7-13-44.6-19.5c-1.3-0.6-2.7-1-4.8-1.7
			c5.7,5.6,38.7,22.3,50.6,25.7C136.9,164,136.5,162.7,134.1,161.6z M259.9,173.9c-0.4,0-0.8,0.1-1.2,0.1
			c-9.8,2.3-19.6,4.9-29.5,7.2c-2.5,0.6-3.3,1.9-2.5,4.4c0.4,0.1,0.6,0.1,0.7,0.1c0.1,0,0.1,0,0.1,0c10.8-3,21.5-6,32.3-9
			c0.9-0.3,1.7-1.2,2.6-1.8c-0.1-0.3-0.2-0.7-0.3-1C261.3,173.9,260.6,173.9,259.9,173.9z M276.8,168.9c-2.6,0.7-5.2,1.5-7.8,2.3
			c-0.4,0.1-0.6,1-0.8,1.5c0.4,0.2,1.1,0.8,1.5,0.8c0.1,0,0.1,0,0.1,0c2.5-1.1,5-2.3,7.5-3.5C277.1,169.6,276.9,169.3,276.8,168.9z
			 M219.8,164.6c11.9-3.5,44.9-20.1,50.5-25.6c-1.5,0.4-2.4,0.7-3.3,1.1c-15.4,6.7-30.7,13.5-46.1,20.2
			C218.4,161.3,218.5,162.7,219.8,164.6z M136.8,277.6L98.2,279l19.7-33.2l18.3-33.7l18.9-33.4l20-33.8l18.5,34.6l18.6,33.5
			l20.1,32.6l19.8,33.2l-38.8-0.6l-38.3,0.1L136.8,277.6z M189.8,213.8l-2.2,2.1l15,51.5l2.1,6.2l39.4,0.6l-22-38.4l-21.2-38.5
			L189.8,213.8z M167.2,169.6l15.1,0.2l1.2-0.3l-8.5-15.3L167.2,169.6z M158.6,186.2l0.6,1.3l0.8,3.8l0.7,1.8l1,2.9l2.2,2.7l2.7,0.5
			l1,0.7l2-0.1l0.3,1.1l0.8-0.1l1-0.4l0.7,0.8l-0.6,0.6l1.6,6.8l-1.1,0.6l-1.7-0.4l-0.1,0.4l0.7,5.4l-0.6,0.9l1.4-0.4l1.1,0.4
			l-1,56.1l0.4,0.6l0.5-0.1l0.2,1.1l1.6,1l0.8-0.6l1.7-0.5l0.2-1.3l0.7-7.3l5.2-1.1l-0.4,0.7l0.3,2.3l0.8,1.1l9.3-0.1V267l0.6-4.1
			l-2.8,0.6l0.6-0.7l-1.6-3.2l1.1,0.5l2.2-0.4l-0.2-0.4l0.9-4.1l-2.9,0.9l-0.1-1l0.1-2.8l2.1-0.6l0.1,0.1l1.3-3.9l-1.1,0.6l-9.6-1.3
			l-0.8,1l1,2.1l-0.8,0.3l-5,1.1l-0.2-1.5l-0.6-34.2l1.3-0.7l-0.6-1l1.8,1.6l0.7-1.2l-0.4-5.4l-0.2,0.2l-1.8,0.4l0.2-1.3l-1.5-6.2
			l0.4-0.9l0.9-0.5l1.3-0.4l1.4,0.1l0.5-0.8l1.1-0.1l2.6-0.3l1.2-2.6l2,0.1l0.8-2.9l1.8-1.8l-1.1-1.7l2-2l-1.6-1.3l-0.4-0.5
			l-0.3-2.2l-2.3-4.3l-2-1.3l-2.5-1.3l-2.5-0.3l-0.9-2.1l-1.1,0.8l-1.6-0.7l-3.5,0.6l-2.1-0.1l-1.8,0.3l-1.8,1.6l-2.3,1.5l-1.5,0.8
			l-2.5,0.7l0.2,0.7l-1.1,1.3l-0.8,1.6L158.6,186.2z M105.4,274.6l40.1-0.8l1.1-0.9l8.3-28.4l6.6-28.8l-1.2-1.7l-10.2-16.1
			l-21.9,38.1L105.4,274.6z"/>
	</g>
</g>
</svg>
