<?xml version="1.0" encoding="utf-8"?>
<!-- Generator: Adobe Illustrator 17.0.0, SVG Export Plug-In . SVG Version: 6.00 Build 0)  -->
<!DOCTYPE svg PUBLIC "-//W3C//DTD SVG 1.1//EN" "http://www.w3.org/Graphics/SVG/1.1/DTD/svg11.dtd">
<svg version="1.1" id="Layer_1" xmlns="http://www.w3.org/2000/svg" xmlns:xlink="http://www.w3.org/1999/xlink" x="0px" y="0px"
	 width="595.28px" height="841.89px" viewBox="0 0 595.28 841.89" enable-background="new 0 0 595.28 841.89" xml:space="preserve">
<g>
	<polygon points="326.864,505.775 326.937,505.758 326.952,505.411 	"/>
	<path d="M317.719,385.881l-1.691-0.467l-3.092-3.461l-0.651-4.31l-3.346-0.711l-3.723-0.994l-2.276-1.477l-1.813-1.04l-3.548,2.361
		l0.06-2.156l-2.017,0.568l-2.668,1.644l-2.231,0.202l-4.63,1.961l-4.577,1.323l-2.11,6.447l-2.073,0.837l1.438,1.945l0.362,2.589
		l-2.599,1.11l3.173,1.602l-1.859,1.896l3.25,3l2.389,4.092l2.771-0.047l2.923,1.193l4.345,1.7l1.672-0.425l1.98,2.602l1.609-2.088
		l3.285-0.116l1.109,1.104l2.243-1.668l2.973-0.889l3.126-3.456l1.542-0.78l3.987-3.289l0.372-4.891l-0.893-3.5L317.719,385.881z
		 M290.498,390.802l7.139-7.184l7.167,7.184l-7.167,7.339L290.498,390.802z"/>
	<polygon points="303.381,528.383 303.483,528.36 303.52,527.949 	"/>
	<path fill="none" d="M180.234,265.757c5.149,9.095,12.207,16.384,20.8,23.059C201.911,283.476,190.054,270.509,180.234,265.757z"/>
	<path fill="none" d="M464.522,302.095c-27.943,12.208-55.854,24.498-83.823,36.662c-4.314,1.878-4.245,4.368-1.787,7.917
		c21.686-6.312,81.56-36.491,91.661-46.477C467.967,301.001,466.171,301.376,464.522,302.095z"/>
	<path fill="none" d="M395.801,290.86c-0.431-0.466-0.862-0.93-1.292-1.395c-1.152,0.512-2.582,0.747-3.421,1.577
		c-7.771,7.72-15.464,15.513-23.111,23.354c-2.69,2.757-0.732,4.598,2.486,7.117C379.061,311.105,387.434,300.983,395.801,290.86z"
		/>
	<path fill="none" d="M423.9,261.299c-9.967,4.344-23.241,18.784-21.855,24.068C410.278,278.142,417.64,271.206,423.9,261.299z"/>
	<path fill="none" d="M393.077,178.804c-18.882,37.638-38.635,74.871-53.173,114.529c-0.467,1.297-1.139,2.636-1.144,3.956
		c-0.01,0.99,0.704,2.456,1.504,2.826c0.12,0.056,0.269,0.082,0.435,0.082c0.768,0,1.914-0.557,2.459-1.137
		c0.915-0.973,1.386-2.378,2.006-3.619c18.064-36.537,34.552-73.747,48.072-112.231c0.723-2.037,1.378-4.091,2.071-6.14
		c-0.273-0.113-0.548-0.223-0.82-0.337C394.016,177.421,393.45,178.065,393.077,178.804z"/>
	<path fill="none" d="M212.7,295.501c-1.183-1.171-2.97-1.732-4.477-2.575c-0.308,0.349-0.617,0.698-0.922,1.045
		c0.878,1.355,1.629,2.811,2.648,4.051c6.498,7.898,12.975,15.818,19.684,23.535c0.827,0.951,2.852,1.878,4.058,1.878
		c0.273,0,0.505-0.047,0.671-0.151c2.534-1.586,2.088-3.84-0.071-5.986C227.048,310.08,219.963,302.698,212.7,295.501z"/>
	<path fill="none" d="M468.275,358.6c-0.738,0.245-1.047,1.805-1.55,2.759c0.847,0.444,1.926,1.42,2.586,1.42
		c0.073,0,0.143-0.012,0.204-0.039c4.589-1.98,9.059-4.238,13.573-6.41c-0.248-0.626-0.505-1.251-0.746-1.876
		C477.638,355.801,472.914,357.053,468.275,358.6z"/>
	<path fill="none" d="M223.095,341.223c-27.022-11.737-53.964-23.652-80.955-35.464c-2.433-1.065-5.006-1.81-8.686-3.123
		c10.392,10.255,70.186,40.402,91.884,46.717C228.174,345.417,227.414,343.099,223.095,341.223z"/>
	<path fill="none" d="M214.74,188.388c-1.902-3.857-3.953-7.644-5.935-11.463c-0.38,0.127-0.762,0.253-1.144,0.38
		c0.63,1.937,1.225,3.891,1.899,5.813c13.481,38.303,29.892,75.359,47.869,111.733c1.027,2.081,3.886,5.347,4.805,5.347
		c0.043,0,0.082-0.008,0.117-0.022c4.213-1.826,1.158-5.027,0.288-7.438C249.643,256.599,231.649,222.742,214.74,188.388z"/>
	<path fill="none" d="M204.445,377.057c-17.879-4.228-35.68-8.789-53.551-13.057c-0.554-0.133-1.13-0.182-1.733-0.182
		c-1.556,0-3.308,0.331-5.422,0.427c4.009,5.222,49.98,19.476,65.13,21.037C210.15,380.722,209.206,378.179,204.445,377.057z"/>
	<path fill="none" d="M451.624,363.488c-0.76,0-1.512,0.056-2.23,0.229c-17.877,4.29-35.7,8.816-53.581,13.084
		c-4.608,1.102-6.005,3.478-4.53,8.027c0.67,0.097,1.046,0.226,1.322,0.226c0.064,0,0.126-0.008,0.182-0.023
		c19.549-5.409,39.111-10.795,58.619-16.357c1.731-0.494,3.14-2.126,4.697-3.235c-0.172-0.594-0.335-1.191-0.505-1.787
		C454.286,363.652,452.935,363.488,451.624,363.488z"/>
	<path fill="none" d="M299.527,219.622c-0.684,0.052-1.372,0.106-2.061,0.159c-0.903,19.708-1.81,39.417-2.727,59.446
		c6.165-1.036,6.958-1.382,6.933-6.018c-0.092-16.167-0.492-32.333-0.885-48.495C300.745,223.007,299.962,221.318,299.527,219.622z"
		/>
	<g>
		<g>
			<path d="M212.755,664.604v-14.22h7.5v1.545h-5.81v4.079h5.81v1.572h-5.81v5.449h5.81v1.574H212.755z"/>
		</g>
		<g>
			<path d="M232.275,656.708c0.925,0.394,1.622,0.917,2.092,1.572c0.469,0.654,0.707,1.428,0.707,2.322
				c0,1.308-0.419,2.36-1.25,3.159c-0.833,0.801-1.934,1.201-3.308,1.201c-1.12,0-2.059-0.286-2.816-0.861
				c-0.757-0.571-1.269-1.387-1.536-2.442l1.536-0.757c0.208,0.862,0.547,1.515,1.026,1.957c0.474,0.443,1.072,0.667,1.79,0.667
				c0.847,0,1.536-0.246,2.058-0.734c0.525-0.489,0.786-1.126,0.786-1.908c0-0.634-0.183-1.186-0.547-1.656
				c-0.366-0.469-0.919-0.866-1.656-1.19l-1.73-0.737c-0.942-0.396-1.648-0.903-2.112-1.524c-0.462-0.622-0.694-1.368-0.694-2.234
				c0-1.011,0.375-1.847,1.126-2.506c0.75-0.661,1.711-0.989,2.875-0.989c0.857,0,1.595,0.18,2.219,0.542
				c0.626,0.362,1.113,0.896,1.462,1.603l-1.399,0.894c-0.317-0.55-0.673-0.961-1.068-1.228c-0.394-0.269-0.84-0.403-1.341-0.403
				c-0.634,0-1.152,0.194-1.557,0.585c-0.405,0.386-0.607,0.882-0.607,1.482c0,0.506,0.155,0.944,0.465,1.313
				c0.311,0.369,0.792,0.697,1.449,0.981L232.275,656.708z"/>
		</g>
		<g>
			<path d="M252.84,653.783c-0.679-0.738-1.403-1.284-2.176-1.638c-0.769-0.351-1.621-0.527-2.553-0.527
				c-0.751,0-1.484,0.152-2.198,0.457c-0.715,0.303-1.337,0.727-1.862,1.271c-0.544,0.563-0.95,1.192-1.222,1.887
				c-0.273,0.698-0.409,1.467-0.409,2.309c0,0.66,0.083,1.268,0.244,1.827c0.16,0.557,0.404,1.068,0.728,1.533
				c0.567,0.809,1.27,1.432,2.1,1.87c0.833,0.435,1.732,0.655,2.696,0.655c0.907,0,1.749-0.188,2.525-0.563
				c0.778-0.375,1.488-0.937,2.127-1.682v2.245c-0.706,0.512-1.466,0.898-2.277,1.16c-0.811,0.264-1.651,0.393-2.519,0.393
				c-0.753,0-1.484-0.109-2.197-0.332c-0.712-0.225-1.379-0.551-2-0.977c-1.037-0.721-1.828-1.603-2.373-2.654
				c-0.55-1.047-0.823-2.201-0.823-3.457c0-1.093,0.184-2.089,0.55-2.985c0.366-0.896,0.925-1.712,1.676-2.442
				c0.725-0.7,1.526-1.224,2.407-1.57c0.881-0.345,1.844-0.517,2.885-0.517c0.823,0,1.619,0.122,2.39,0.372
				c0.77,0.248,1.53,0.637,2.281,1.161V653.783z"/>
		</g>
		<g>
			<path d="M264.202,649.821l6.468,14.782h-1.836l-1.846-4.361h-5.553l-1.847,4.361h-1.835L264.202,649.821z M264.202,653.56
				l-2.264,5.234h4.527L264.202,653.56z"/>
		</g>
		<g>
			<path d="M277.763,658.223v6.381h-1.649v-14.22h2.982c1.042,0,1.81,0.055,2.302,0.166c0.492,0.11,0.92,0.291,1.282,0.543
				c0.451,0.324,0.807,0.767,1.064,1.33c0.255,0.563,0.385,1.188,0.385,1.875c0,0.686-0.13,1.313-0.385,1.876
				c-0.258,0.563-0.613,1.005-1.064,1.329c-0.362,0.259-0.789,0.445-1.278,0.554c-0.487,0.11-1.256,0.166-2.306,0.166h-0.477
				H277.763z M277.763,656.687h0.856c1.45,0,2.428-0.169,2.931-0.509c0.5-0.34,0.75-0.934,0.75-1.781
				c0-0.907-0.257-1.545-0.772-1.915c-0.515-0.369-1.484-0.553-2.908-0.553h-0.856V656.687z"/>
		</g>
		<g>
			<path d="M290.194,664.604v-14.22h7.495v1.545h-5.805v4.079h5.805v1.572h-5.805v5.449h5.805v1.574H290.194z"/>
		</g>
		<g>
			<path d="M322.198,657.262h5.864v0.477c0,2.238-0.636,4.007-1.904,5.301c-1.27,1.295-2.999,1.941-5.193,1.941
				c-0.667,0-1.306-0.068-1.908-0.212c-0.609-0.143-1.163-0.352-1.678-0.622c-1.165-0.641-2.064-1.526-2.699-2.656
				c-0.634-1.129-0.952-2.413-0.952-3.851c0-1.185,0.188-2.255,0.567-3.21c0.381-0.956,0.953-1.795,1.717-2.521
				c0.639-0.608,1.386-1.068,2.235-1.379c0.845-0.311,1.783-0.468,2.816-0.468c1.362,0,2.547,0.248,3.553,0.744
				c1.001,0.494,1.837,1.24,2.493,2.238l-1.416,1.137c-0.509-0.86-1.148-1.506-1.913-1.938c-0.764-0.432-1.648-0.646-2.659-0.646
				c-1.654,0-2.995,0.557-4.022,1.669c-1.028,1.116-1.543,2.572-1.543,4.372c0,1.695,0.522,3.088,1.568,4.176
				c1.043,1.087,2.379,1.632,3.997,1.632c1.421,0,2.61-0.434,3.558-1.296c0.948-0.864,1.476-1.989,1.578-3.375h-4.059V657.262z"/>
		</g>
		<g>
			<path d="M339.045,649.821l6.468,14.782h-1.833l-1.846-4.361h-5.556l-1.847,4.361h-1.837L339.045,649.821z M339.045,653.56
				l-2.263,5.234h4.528L339.045,653.56z"/>
		</g>
		<g>
			<path d="M357.581,665.157l-4.421-10.218l-1.783,9.664h-1.653l2.887-14.782l4.971,11.76l4.974-11.76l2.884,14.782h-1.649
				l-1.811-9.664L357.581,665.157z"/>
		</g>
		<g>
			<path d="M371.602,664.604v-14.22h7.501v1.545h-5.811v4.079h5.811v1.572h-5.811v5.449h5.811v1.574H371.602z"/>
		</g>
	</g>
	<path d="M423.9,261.299c-6.261,9.907-13.622,16.843-21.855,24.068C400.659,280.082,413.934,265.643,423.9,261.299z
		 M391.088,291.043c-7.771,7.72-15.464,15.513-23.111,23.354c-2.69,2.757-0.732,4.598,2.486,7.117
		c8.599-10.409,16.971-20.531,25.338-30.654c-0.431-0.466-0.862-0.93-1.292-1.395C393.356,289.978,391.927,290.212,391.088,291.043z
		 M340.265,300.115c0.12,0.056,0.269,0.082,0.435,0.082c0.768,0,1.914-0.557,2.459-1.137c0.915-0.973,1.386-2.378,2.006-3.619
		c18.064-36.537,34.552-73.747,48.072-112.231c0.723-2.037,1.378-4.091,2.071-6.14c-0.273-0.113-0.548-0.223-0.82-0.337
		c-0.472,0.688-1.037,1.333-1.41,2.072c-18.882,37.638-38.635,74.871-53.173,114.529c-0.467,1.297-1.139,2.636-1.144,3.956
		C338.751,298.279,339.465,299.745,340.265,300.115z M257.429,294.851c1.027,2.081,3.886,5.347,4.805,5.347
		c0.043,0,0.082-0.008,0.117-0.022c4.213-1.826,1.158-5.027,0.288-7.438c-12.995-36.139-30.988-69.997-47.898-104.35
		c-1.902-3.857-3.953-7.644-5.935-11.463c-0.38,0.127-0.762,0.253-1.144,0.38c0.63,1.937,1.225,3.891,1.899,5.813
		C223.041,221.421,239.452,258.477,257.429,294.851z M180.234,265.757c5.149,9.095,12.207,16.384,20.8,23.059
		C201.911,283.476,190.054,270.509,180.234,265.757z M234.291,317.298c-7.244-7.218-14.328-14.6-21.591-21.796
		c-1.183-1.171-2.97-1.732-4.477-2.575c-0.308,0.349-0.617,0.698-0.922,1.045c0.878,1.355,1.629,2.811,2.648,4.051
		c6.498,7.898,12.975,15.818,19.684,23.535c0.827,0.951,2.852,1.878,4.058,1.878c0.273,0,0.505-0.047,0.671-0.151
		C236.896,321.699,236.45,319.444,234.291,317.298z M204.445,377.057c-17.879-4.228-35.68-8.789-53.551-13.057
		c-0.554-0.133-1.13-0.182-1.733-0.182c-1.556,0-3.308,0.331-5.422,0.427c4.009,5.222,49.98,19.476,65.13,21.037
		C210.15,380.722,209.206,378.179,204.445,377.057z M301.673,273.21c-0.092-16.167-0.492-32.333-0.885-48.495
		c-0.043-1.708-0.826-3.396-1.261-5.092c-0.684,0.052-1.372,0.106-2.061,0.159c-0.903,19.708-1.81,39.417-2.727,59.446
		C300.904,278.191,301.698,277.845,301.673,273.21z M223.095,341.223c-27.022-11.737-53.964-23.652-80.955-35.464
		c-2.433-1.065-5.006-1.81-8.686-3.123c10.392,10.255,70.186,40.402,91.884,46.717C228.174,345.417,227.414,343.099,223.095,341.223
		z M451.624,363.488c-0.76,0-1.512,0.056-2.23,0.229c-17.877,4.29-35.7,8.816-53.581,13.084c-4.608,1.102-6.005,3.478-4.53,8.027
		c0.67,0.097,1.046,0.226,1.322,0.226c0.064,0,0.126-0.008,0.182-0.023c19.549-5.409,39.111-10.795,58.619-16.357
		c1.731-0.494,3.14-2.126,4.697-3.235c-0.172-0.594-0.335-1.191-0.505-1.787C454.286,363.652,452.935,363.488,451.624,363.488z
		 M482.343,354.454c-4.705,1.347-9.429,2.599-14.067,4.146c-0.738,0.245-1.047,1.805-1.55,2.759c0.847,0.444,1.926,1.42,2.586,1.42
		c0.073,0,0.143-0.012,0.204-0.039c4.589-1.98,9.059-4.238,13.573-6.41C482.841,355.704,482.584,355.079,482.343,354.454z
		 M378.912,346.674c21.686-6.312,81.56-36.491,91.661-46.477c-2.606,0.804-4.402,1.179-6.051,1.898
		c-27.943,12.208-55.854,24.498-83.823,36.662C376.385,340.635,376.454,343.125,378.912,346.674z M228.004,551.898l-70.128,2.544
		l35.869-60.27l33.318-61.178l34.231-60.629l36.342-61.353l33.677,62.902l33.755,60.916l36.56,59.287l35.948,60.426l-70.309-1.237
		l-69.64,0.169L228.004,551.898z M324.364,435.962l-4.093,3.717l27.214,93.657l3.786,11.379l71.509,1.129l-40.041-69.719
		l-38.615-70.012L324.364,435.962z M283.364,355.672l27.452,0.408l2.247-0.638l-15.48-27.735L283.364,355.672z M267.616,385.91
		l1.05,2.394l1.402,6.87l1.314,3.369l1.873,5.289l4.076,5.01l4.856,0.936l1.859,1.318l3.582-0.089l0.546,2.008l1.466-0.148
		l1.823-0.844l1.229,1.447l-1.023,1.099l2.798,12.311l-1.899,1.075l-3.039-0.855l-0.197,0.762l1.287,9.778l-1.073,1.575l2.571-0.8
		l2.011,0.666l-1.806,101.845l0.692,1.163l0.938-0.092l0.421,2.038l2.869,1.774l1.511-0.969l3.086-0.887l0.397-2.418l1.247-13.177
		l9.376-1.89l-0.843,1.362l0.63,4.105l1.463,1.924l16.923-0.189l0.016-1.09l1.019-7.405l-5.152,1.03l1.018-1.205l-2.98-5.846
		l1.89,0.916l4.051-0.685l-0.271-0.813l1.61-7.486l-5.292,1.722l-0.214-1.842l0.211-5.211l3.758-1.083l0.168,0.133l2.37-7.143
		l-1.946,1.059l-17.392-2.337l-1.502,1.841l1.821,3.9l-1.475,0.465l-9.133,1.967l-0.411-2.591l-1.165-62.101l2.412-1.31
		l-1.052-1.781l3.335,2.946l1.281-2.112l-0.765-9.757l-0.44,0.42l-3.298,0.732l0.415-2.302l-2.619-11.214l0.777-1.724l1.576-0.887
		l2.411-0.85l2.563,0.191l0.887-1.457l2.003-0.107l4.793-0.643l2.082-4.787l3.657,0.248l1.383-5.279l3.343-3.281l-2.001-3.057
		l3.567-3.551l-2.849-2.395l-0.792-0.878l-0.639-3.936l-4.238-7.808l-3.685-2.333l-4.456-2.297l-4.412-0.594l-1.77-3.849
		l-1.978,1.374l-2.916-1.302l-6.331,0.974l-3.805-0.119l-3.196,0.591l-3.251,2.819l-4.15,2.747l-2.753,1.512l-4.419,1.248
		l0.343,1.192l-2.035,2.33l-1.498,2.882L267.616,385.91z M171.064,546.416l72.837-1.495l1.909-1.667l15.088-51.608l11.99-52.434
		l-2.181-3.022l-18.516-29.322l-39.776,69.226L171.064,546.416z M470.366,596.644c-0.206,0-0.416,0.005-0.625,0.016
		c-0.077,0.054-0.157,0.079-0.232,0.079h-0.273l-0.309,0.077l-0.235,0.076l-1.828,0.664l-0.159,0.153l-0.54,0.235
		c-0.21,0.181-0.431,0.321-0.664,0.427l-0.232,0.157l-0.507,0.31c-0.206,0.286-0.438,0.468-0.702,0.546l-0.271,0.27
		c-0.314,0.392-0.623,0.678-0.936,0.861l-0.117,0.271l-0.544,0.466c-0.339,0.519-0.66,0.908-0.97,1.166v-0.386v-1.169
		c-0.055-0.156-0.079-0.299-0.079-0.43V600.2v-1.048l-0.079-0.547v-1.478h-0.31h-0.353h-0.233h-1.48h-1.051h-0.349h-1.362h-0.233
		h-0.972v0.349c0.048,0.053,0.074,0.105,0.074,0.156c-0.026,0.493,0,0.92,0.078,1.285v1.711c0.053,0.079,0.08,0.158,0.08,0.235
		v24.867c-0.027,1.143,0.054,2.076,0.232,2.803l0.191,0.194l0.159,0.544l0.156,0.158l0.466,0.894l0.194,0.234l0.156,0.233
		c0.47,0.492,0.816,0.946,1.048,1.36l0.315,0.232l0.153,0.234l0.311,0.232l0.664,0.739c0.466,0.315,0.802,0.612,1.008,0.898
		l0.239,0.076l0.152,0.232c0.674,0.417,1.195,0.815,1.556,1.206h0.234v-0.232v-1.05v-0.661v-1.364v-0.232v-0.973v-0.313v-0.313
		v-1.596v-0.233v-1.439v-0.273v-2.49v-1.594v-0.508v-0.232v-0.313v-0.272v-0.392v-0.233v-0.35v-0.272v-1.596v-0.234v-1.051v-1.048
		v-1.131v-0.892v-0.314v-0.35v-0.232l0.077-0.546c0-0.389,0.027-0.712,0.08-0.971V611.8c1.294-2.309,2.893-3.905,4.784-4.785
		c1.689,0.181,3.012,0.908,3.973,2.18c0.336-1.974-0.042-3.634-1.13-4.982c1.098-0.498,2.138-0.748,3.113-0.748
		c1.51,0,2.872,0.599,4.084,1.799c-2.646,1.348-3.267,3.306-1.866,5.873l0.895,0.664c0.274,0.031,0.542,0.047,0.802,0.047
		c1.845,0,3.289-0.807,4.334-2.42c1.273-3.294,0.494-6.229-2.331-8.798C476.47,597.973,473.589,596.644,470.366,596.644z
		 M501.969,597.557l-0.274-0.08l-0.232-0.076l-0.237-0.116l-0.349-0.078l-0.234-0.078l-0.152-0.076l-1.443-0.313h-0.076h-0.116
		h-0.08h-0.076h-0.076h-0.08h-0.079h-0.077h-0.076h-0.118h-0.076h-0.076h-0.08h-0.117h-0.078h-0.078h-0.076h-0.078h-0.077h-0.079
		h-0.08h-0.073h-0.079h-0.08h-0.076h-0.117h-0.08h-0.078h-0.073h-0.078h-0.081H496.4h-0.074h-0.081
		c-4.048,0.935-6.85,3.113-8.404,6.538l-0.156,1.36l0.156,1.209c0.207,0.361,0.349,0.686,0.426,0.971
		c0.365,0.413,0.621,0.766,0.78,1.052l0.151,0.077l0.159,0.195l1.126,0.777c0.397,0.111,0.767,0.168,1.1,0.168
		c1.06,0,1.795-0.562,2.211-1.685c0.622-1.816,0.143-3.23-1.441-4.244c1.107-0.656,2.175-0.983,3.195-0.983
		c1.158,0,2.258,0.42,3.306,1.259c-1.272,1.269-1.843,2.7-1.712,4.281c1.148-0.856,2.3-1.287,3.457-1.287
		c0.805,0,1.609,0.208,2.419,0.624c1.866,1.557,2.697,3.556,2.491,5.994h-0.313h-0.232h-1.637c-0.084-0.008-0.167-0.009-0.248-0.009
		c-0.236,0-0.451,0.028-0.647,0.086h-0.579l-1.752,0.156h-0.357c-0.514,0.103-0.972,0.155-1.36,0.155l-0.347,0.077l-0.353,0.079
		h-0.232l-1.127,0.234c-0.342,0.103-0.638,0.17-0.901,0.192l-0.31,0.078c-0.416,0.182-0.79,0.286-1.125,0.312
		c-0.963,0.415-1.755,0.714-2.375,0.897c-0.289,0.207-0.56,0.335-0.816,0.387l-0.156,0.156c-0.259,0.156-0.493,0.273-0.7,0.351
		c-0.34,0.311-0.677,0.518-1.012,0.622l-0.432,0.427l-0.232,0.159l-0.156,0.076c-0.051,0.104-0.101,0.156-0.154,0.156
		c-0.442,0.543-0.855,0.947-1.244,1.204l-0.08,0.274l-0.152,0.155l-0.468,0.661l-0.08,0.233l-0.194,0.155l-0.702,1.479l-0.078,0.272
		l-0.115,0.235v0.232l-0.152,0.661c-0.105,0.286-0.185,0.559-0.238,0.817v0.622l-0.077,0.271v2.337
		c1.117,5.216,4.125,8.121,9.031,8.717c0.578,0.05,1.142,0.076,1.691,0.076c4.532,0,8.108-1.709,10.723-5.136h0.273
		c-0.184,3.297,0.985,5.036,3.501,5.217c1.089-0.081,1.905-0.222,2.452-0.429C512.799,614.497,509.435,601.785,501.969,597.557z
		 M501.853,629.86c-1.621,0.977-3.234,1.467-4.843,1.467c-1.075,0-2.146-0.216-3.217-0.652c-2.803-1.711-3.685-4.179-2.646-7.396
		c0.206-0.882,0.557-1.622,1.05-2.218l0.466-0.428c0.415-0.468,0.82-0.817,1.212-1.05l0.191-0.079l0.153-0.077l0.158-0.076
		l0.153-0.08l0.159-0.079l0.156-0.076c0.283-0.156,0.529-0.274,0.734-0.349c0.392-0.183,0.745-0.288,1.056-0.315
		c0.051-0.049,0.101-0.076,0.151-0.076c0.417-0.153,0.77-0.233,1.053-0.233c0.648-0.235,1.232-0.352,1.753-0.352
		c0.337-0.1,0.632-0.153,0.896-0.153h0.311l0.272-0.079h0.311h0.232l0.237-0.077h0.268c0.125,0.006,0.245,0.01,0.362,0.01
		c0.341,0,0.649-0.031,0.92-0.086h0.664c0.155-0.007,0.305-0.01,0.447-0.01c0.434,0,0.816,0.026,1.148,0.086
		C506.208,623.657,504.936,627.781,501.853,629.86z M362.913,608.375l0.115,1.984v0.506v0.352v0.504v0.352v1.01v0.584v1.363v0.507
		v0.622v0.504v2.18v0.51v0.97v0.856v2.492v0.973v0.857v0.737l-0.037,0.817v1.519v0.351v2.063v0.545v1.596v0.621v0.467v0.623v0.506
		c-2.933-1.32-5.349-3.542-7.238-6.655c-0.103-0.7-0.147-2.177-0.118-4.436l-0.117-0.348l-0.115-20.551
		c0.053-0.439,0.013-0.972-0.117-1.596v-1.711c0.026-0.13-0.013-0.246-0.116-0.35v-1.012c-0.053-0.337-0.094-0.74-0.118-1.209
		l-0.27-1.008c-0.052-0.546-0.132-1.001-0.235-1.363v-0.468l-0.738-2.337c0.025-0.076-0.015-0.155-0.114-0.232l-0.121-0.39
		l-0.117-0.505c-0.232-0.341-0.489-0.833-0.776-1.481c-0.986-1.531-2.45-2.581-4.397-3.151c-0.411-0.046-0.811-0.068-1.196-0.068
		c-5.518,0-8.529,4.682-9.04,14.042c0.413-0.521,1-1.094,1.751-1.716c1.559-1.164,3.151-1.744,4.777-1.744
		c2.003,0,4.054,0.88,6.159,2.641c1.945,1.243,2.854,3.09,2.722,5.522c-0.36,1.819-1.517,3.051-3.463,3.699
		c-3.216-1.037-3.594-3.018-1.126-5.953c-0.861-0.441-1.721-0.662-2.579-0.662c-1.217,0-2.433,0.442-3.647,1.326
		c1.164,1.008,1.774,2.359,1.828,4.046c-0.797-0.707-1.602-1.063-2.422-1.063c-0.649,0-1.31,0.224-1.975,0.672
		c-0.728,0.857-1.364,2.01-1.908,3.463l-0.117,0.234v2.452v0.351c0,0.076,0.037,0.168,0.117,0.272v0.506v0.351v0.35v1.399v1.714v0.7
		v0.508v1.71v0.897v1.597v3.813v0.35v0.35v0.74c-0.028,0.699,0.024,1.53,0.153,2.491v0.97v0.352v0.509v0.387v1.712
		c-0.278-0.038-0.592-0.056-0.936-0.056c-0.61,0-1.326,0.059-2.135,0.174h-0.47h-0.427h-0.467h-0.353h-0.735h-0.629v-4.397
		c0-0.156-0.035-0.298-0.115-0.43l-0.117-19.263c-0.024-0.726-0.229-1.387-0.618-1.985c-0.631-1.809-1.599-2.712-2.903-2.712
		c-0.79,0-1.703,0.334-2.74,0.996c-0.054-1.526,0.557-2.837,1.828-3.925l-0.508-0.509c-0.932-0.626-1.912-0.939-2.947-0.939
		c-0.897,0-1.835,0.235-2.809,0.707c2.073,1.971,2.035,3.866-0.124,5.682c-0.334,0.155-0.734,0.233-1.204,0.233
		c-4.227-2.258-4.566-5.216-1.01-8.872c2.183-2.025,4.373-3.037,6.567-3.037c2.112,0,4.23,0.935,6.353,2.802
		c-0.441-6.979-3.605-11.44-9.494-13.387h-1.598h-0.349l-1.014,0.116c-2.202,0.468-4.046,1.777-5.523,3.932
		c-0.262,0.491-0.494,1.103-0.7,1.83c-0.234,0.414-0.404,0.907-0.509,1.477l-0.232,0.39l-0.156,0.935l-0.466,1.984v0.389
		l-0.159,0.351l-0.115,1.984v0.352l-0.117,0.348v0.39v0.506v1.598v0.391v0.35l0.117,0.232v0.35v0.389v1.363v1.591v0.473v0.659v0.467
		v1.596v0.392v0.465v0.74v2.1l0.115,0.743v0.852v0.389v0.352v2.179v0.508v0.389v0.506v0.467v1.247v2.448v0.975v0.857v1.013
		l-0.115,0.972c-0.282,0.416-0.557,0.948-0.82,1.597l-0.268,0.115l-0.273,0.351l-0.116,0.352c-0.572,0.467-1.184,1.091-1.83,1.866
		c-0.081,0.053-0.156,0.145-0.232,0.275l-0.391,0.116l-0.232,0.349c-0.314,0.184-0.729,0.47-1.245,0.858l-0.353,0.388
		c-0.335,0.104-0.675,0.312-1.011,0.622l-0.699,0.235v-1.947v-20.199v-17.668c0.13-0.595,0.206-1.348,0.232-2.255l0.234-0.855
		v-0.701l0.895-3.076l0.116-0.388l0.117-0.353l0.115-0.389l0.121-0.389c2.543-6.072,7.38-9.224,14.516-9.456
		c7.162,0.153,12.192,3.893,15.101,11.208c2.048-6.979,6.392-10.792,13.035-11.442c3.844,0.08,7.11,1.803,9.81,5.179
		c0.182,0.439,0.478,0.879,0.893,1.32l0.232,0.779l0.117,0.232l0.274,0.235l0.116,0.464l0.232,0.548l0.118,0.351l0.27,0.233
		c0.106,0.566,0.352,1.31,0.741,2.217v0.35l0.232,0.387c0.051,0.652,0.21,1.39,0.47,2.22l0.115,0.858l0.156,0.467l0.117,1.362
		l0.156,0.35c-0.026,0.674,0.05,1.428,0.232,2.257v0.465v0.858v0.389l0.116,0.391v0.35v0.582v0.546v1.323v0.468v1.362v0.505v0.622
		v1.714v0.618V608.375z M274.294,616.003h23.391v3.813h-23.391V616.003z M265.15,611.8v-0.235l-0.078-0.273v-0.23v-0.234
		c-0.105-0.233-0.133-0.453-0.079-0.663c-0.13-0.26-0.181-0.505-0.154-0.737c-2.037-8.189-6.894-12.283-14.576-12.283
		c-0.35,0-0.709,0.007-1.071,0.024l-0.31,0.116c-0.311,0-0.584,0.027-0.816,0.076h-0.238l-0.426,0.078l-0.235,0.078h-0.307
		c-0.054,0.052-0.12,0.078-0.197,0.078l-0.622,0.156l-0.661,0.155c-0.313,0.207-0.637,0.324-0.974,0.35
		c-0.286,0.207-0.581,0.337-0.893,0.388l-0.235,0.156c-0.365,0.235-0.662,0.377-0.896,0.428l-0.076,0.156l-0.273,0.076
		c-0.518,0.418-0.97,0.716-1.361,0.897l-0.233,0.232l-0.273,0.197c-0.054,0.077-0.103,0.128-0.156,0.153l-0.232,0.234l-0.235,0.156
		l-0.194,0.232l-0.505,0.506c-0.311,0.442-0.638,0.807-0.975,1.088c-3.137,4.725-4.5,9.679-4.083,14.868
		c1.348,10.873,7.421,16.307,18.213,16.307l-0.076,0.391c-0.313,0.699-0.521,1.297-0.623,1.79h0.31l0.313-0.08h0.271h0.235
		l0.232-0.076h0.232h0.271c0.454-0.158,0.857-0.237,1.211-0.237c0.053,0,0.104,0,0.152,0.005l0.232-0.119l1.479-0.31
		c8.328-2.361,10.598-6.551,6.813-12.572l-0.197-0.076l-0.076-0.158c-0.235-0.179-0.416-0.373-0.545-0.58l-0.586-0.312l-0.465-0.313
		c-0.433-0.098-0.844-0.148-1.233-0.148c-1.243,0-2.259,0.503-3.048,1.511c-0.336,1.116-0.038,1.895,0.894,2.337
		c0.437,0.203,0.853,0.306,1.247,0.306c0.656,0,1.256-0.284,1.791-0.853c0.413,1.065,0.467,2.063,0.159,2.998l-1.755,0.581
		c-0.586-0.444-1.192-0.67-1.822-0.67c-0.067,0-0.134,0.004-0.201,0.009h0.009h0.067l0.429,0.974
		c-1.891,0.36-3.634,0.538-5.225,0.538c-6.922,0-11.005-3.398-12.25-10.19c-0.077-0.414-0.131-0.739-0.153-0.972v-0.232v-0.975
		h0.662h0.232h0.233h2.53h0.507h0.235h1.05h0.505h0.546h0.505h0.389h0.505h0.313h1.441h0.895h0.309h0.352h0.31h0.313h0.271h0.313
		h0.232h0.352h1.438h0.353h0.231h1.635h0.311h0.232h1.479h1.05h0.273h1.404h0.229l0.974-0.078c0.648-0.157,1.169-0.322,1.558-0.505
		l0.816-0.976l0.159-0.661v-0.309v-0.235v-0.272v-0.231v-1.052v-0.232l-0.081-0.352V611.8z M258.846,612.423l-0.158,0.076
		c-0.856,0.313-1.595,0.493-2.218,0.546h-0.233l-0.893,0.115c-0.179-0.018-0.348-0.025-0.509-0.025c-0.326,0-0.61,0.034-0.854,0.104
		h-0.74c-0.543,0-1.01-0.026-1.401-0.08h-0.232h-0.662c-0.493,0-0.92-0.038-1.282-0.115c-0.174,0.018-0.342,0.026-0.501,0.026
		c-0.316,0-0.602-0.035-0.862-0.105h-0.74h-0.391c-0.601-0.107-1.113-0.161-1.537-0.161c-0.089,0-0.172,0.003-0.25,0.007
		l-0.156-0.08h-0.662l-0.544-0.076h-0.43l-0.311-0.077c-0.416,0-0.738-0.025-0.973-0.079h-0.427l-0.235-0.076
		c-0.597-0.025-1.09-0.077-1.479-0.156c0.572-5.084,3.011-8.472,7.317-10.159h0.273c0.726-0.155,1.323-0.244,1.792-0.271
		c5.654,0.337,8.973,3.113,9.963,8.327C259.585,611.073,259.364,611.827,258.846,612.423z M231.292,596.777h1.128l-0.699,1.752
		l-0.082,0.348c-0.13,0.21-0.246,0.468-0.348,0.778l-0.702,1.752c-0.155,0.418-0.376,0.935-0.659,1.559l-0.548,1.672l-0.075,0.157
		l-0.12,0.233l-0.154,0.154l-0.079,0.47l-0.235,0.464c-0.153,0.389-0.335,0.883-0.542,1.479c-0.181,0.337-0.338,0.764-0.47,1.285
		l-0.155,0.232l-0.078,0.154v0.235l-0.155,0.156l-0.08,0.234l-0.076,0.234l-0.116,0.231l-0.076,0.271
		c-0.027,0.079-0.054,0.197-0.081,0.352c-0.078,0.132-0.154,0.311-0.232,0.545l-0.742,1.752l-0.229,0.546l-0.079,0.232l-0.156,0.35
		l-0.156,0.547l-0.74,1.75l-0.232,0.543l-0.156,0.585c-0.261,0.465-0.467,1.037-0.623,1.712l-0.155,0.157v0.232
		c-0.103,0.129-0.208,0.338-0.313,0.624l-0.271,0.544l-0.313,0.973l-0.076,0.271c-0.21,0.289-0.377,0.677-0.507,1.171l-0.076,0.154
		l-0.315,0.818l-0.076,0.234l-0.467,1.01l-0.154,0.546l-0.586,1.478l-0.624,1.518l-0.076,0.158v0.232l-0.154,0.153l-0.08,0.271
		l-0.076,0.276l-0.081,0.312l-0.151,0.312l-0.081,0.31c-0.128,0.209-0.245,0.468-0.348,0.781l-0.508,1.05l-0.154,0.621l-0.313,0.584
		c-0.024,0.234-0.103,0.455-0.235,0.664l-0.154,0.618c-0.273,0.06-0.581,0.092-0.928,0.092c-0.113,0-0.234-0.004-0.354-0.011h-0.235
		h-0.235h-0.546h-0.232h-0.232h-1.479h-0.313h-0.232h-0.349h-0.237h-0.309h-0.313h-0.308h-0.313h-0.237
		c-0.076-0.235-0.192-0.546-0.347-0.935l-0.194-0.505l-0.08-0.156l-0.076-0.235c-0.054-0.207-0.156-0.429-0.313-0.661
		c0-0.076-0.023-0.156-0.078-0.232l-0.311-1.053l-0.156-0.233l-0.076-0.39l-0.156-0.232l-0.076-0.313l-0.156-0.311l-0.079-0.427
		l-0.583-1.285l-0.156-0.546l-0.076-0.272l-0.157-0.232c-0.053-0.39-0.205-0.832-0.466-1.323l-0.158-0.543l-0.159-0.473
		l-0.151-0.464l-0.235-0.469l-0.273-0.544l-0.194-0.661l-0.235-0.546l-0.232-0.583c-0.105-0.467-0.311-0.999-0.624-1.596
		c-0.102-0.521-0.309-1.126-0.621-1.828l-0.076-0.156c-0.054-0.233-0.145-0.451-0.273-0.662l-0.236-0.585v-0.232l-0.152-0.232
		c-0.054-0.39-0.21-0.778-0.47-1.169c-0.054-0.283-0.156-0.637-0.309-1.05l-0.08-0.232l-0.156-0.273
		c-0.104-0.518-0.34-1.077-0.698-1.676c-0.054-0.439-0.236-0.932-0.544-1.476c-0.054-0.364-0.184-0.727-0.391-1.093v-0.229
		l-0.156-0.156c-0.051-0.286-0.155-0.638-0.311-1.052l-0.156-0.233c-0.156-0.725-0.208-1.637-0.156-2.725v-1.129l0.313-0.935
		l0.079-0.467l0.078-0.235l0.311-0.853l0.232-0.624l0.159-0.234c0.051-0.206,0.153-0.439,0.309-0.699l0.08-0.351l0.156-0.235
		l0.117-0.232l0.191-0.232l0.076-0.313c0.184-0.233,0.337-0.505,0.47-0.817l0.156-0.153l0.543-1.129
		c0.235,0.363,0.453,0.844,0.664,1.44c-0.027,0.049,0,0.103,0.075,0.154c0,0.208,0.081,0.429,0.234,0.664l0.156,0.619l0.08,0.159
		l0.155,0.35v0.233l0.153,0.231c0.026,0.362,0.156,0.751,0.389,1.17l0.235,0.853l0.079,0.314l0.777,1.752
		c-0.023,0.077,0,0.153,0.079,0.232c0.025,0.313,0.131,0.62,0.311,0.934c0.075,0.468,0.261,1.04,0.544,1.712
		c0.026,0.156,0.108,0.365,0.232,0.623l0.08,0.232l0.076,0.353l0.232,0.544c0.081,0.439,0.273,0.961,0.586,1.558v0.23l0.232,0.546
		c0.054,0.337,0.182,0.675,0.388,1.015v0.232l0.079,0.193l0.233,0.544c0.028,0.212,0.104,0.429,0.232,0.664l0.082,0.31l0.076,0.314
		l0.156,0.351l0.076,0.232l0.391,1.011l0.078,0.156l0.232,0.543l0.157,0.741l0.076,0.155l0.156,0.274v0.232l0.156,0.234
		c0,0.076,0.026,0.154,0.076,0.232l0.08,0.427l0.156,0.232l0.155,0.546c0.051,0.235,0.156,0.545,0.311,0.935
		c0.023,0.233,0.102,0.455,0.232,0.663c0,0.078,0.026,0.168,0.08,0.272c0,0.08,0.022,0.153,0.076,0.233l0.429,1.439l0.076,0.235
		l0.156,0.309l0.08,0.314c0,0.076,0.025,0.154,0.076,0.229l0.079,0.315l0.154,0.465l0.08,0.467c0.025,0.104,0.076,0.233,0.155,0.39
		l0.235,1.091l0.153,0.389c0,0.206,0.092,0.375,0.273,0.505l0.583-1.752l0.079-0.39l0.079-0.233
		c0.051-0.313,0.154-0.623,0.313-0.932l0.076-0.233l0.156-0.546l0.076-0.313l0.156-0.428l0.156-0.468l0.39-1.089l0.077-0.506
		l0.276-0.584c0.048-0.13,0.125-0.337,0.232-0.623l0.076-0.156l0.076-0.311l0.466-1.36l0.159-0.586l0.155-0.467l0.235-0.506
		l0.154-0.467l0.702-1.984l0.076-0.233c0-0.285,0.051-0.582,0.159-0.896l0.076-0.582v-0.232c0.075-2.595-1.389-3.893-4.399-3.893
		c1.013-1.453,2.53-2.193,4.555-2.22c-0.495-2.906-2.271-4.578-5.332-5.021c0.594,1.923,0.051,3.412-1.634,4.475
		c-0.56,0.364-1.11,0.546-1.647,0.546c-0.731,0-1.44-0.338-2.127-1.014c-1.297-2.668-0.756-5.044,1.634-7.12
		c1.746-0.871,3.518-1.31,5.321-1.31c2.378,0,4.808,0.76,7.288,2.282c0.26,0.132,0.531,0.35,0.816,0.662l0.236,0.08l0.622-1.793
		l0.075-0.313l0.157-0.35l0.08-0.31l0.152-0.313l0.118-0.31h0.932h0.236h1.399h0.314h0.311h0.31h1.442h0.31H231.292z
		 M450.942,600.398h0.628v1.868v0.386v0.314v0.429v0.427v0.974v0.425h-2.065h-0.31h-0.432h-0.309h-0.544h-0.314h-1.438h-3.195
		h-0.618v1.247v0.313v1.789v0.391v0.427v0.427v0.39v1.171v1.867v0.39v0.619v0.546v0.626v0.699v0.623v0.7v3.228v0.314v0.308v0.817
		v0.817v2.104v0.307v0.314l0.115,0.702l0.118,0.856l0.505,1.558c1.161,1.519,2.681,2.279,4.564,2.279c0.941,0,1.975-0.189,3.1-0.57
		c0.078,0.027,0.143,0.107,0.194,0.234c-0.386,3.268-1.919,5.098-4.59,5.486c-0.388,0.043-0.771,0.065-1.151,0.065
		c-2.564,0-4.932-0.992-7.101-2.982c-0.206-0.468-0.493-0.908-0.857-1.325c-0.074-0.414-0.242-0.828-0.506-1.244
		c-0.026-0.311-0.125-0.648-0.311-1.012c0-0.286-0.063-0.595-0.194-0.932c0.027-0.289-0.011-0.559-0.114-0.819v-0.623l-0.115-0.31
		v-0.973c0-0.105-0.044-0.21-0.117-0.314V605.22c-2.567-0.543-4.387-2.152-5.451-4.822h1.246h0.31h1.714h0.43h0.425h0.392h1.36
		l0.116-1.361c-0.052-1.973-1.477-3.051-4.279-3.231c0.932-1.167,2.259-1.893,3.971-2.179l-0.313-1.131
		c-0.961-1.734-2.506-2.723-4.631-2.957c0.595,2.905-0.622,4.474-3.658,4.709c-0.964-0.544-1.62-1.426-1.985-2.646
		c-0.075-3.243,1.623-5.252,5.097-6.031c1.021-0.182,1.978-0.273,2.866-0.273c6.634,0,9.581,5.033,8.852,15.102h2.097h0.315h0.349
		h0.309h0.548h0.314h1.438H450.942z M186.379,597.557l-0.272-0.08l-0.232-0.076l-0.232-0.116l-0.354-0.078l-0.232-0.078
		l-0.156-0.076l-1.437-0.313h-0.078h-0.116h-0.081h-0.076h-0.08h-0.076h-0.076h-0.08h-0.079h-0.114h-0.08h-0.076h-0.08h-0.117
		h-0.076H182.1h-0.079h-0.08h-0.076h-0.076h-0.08h-0.076h-0.081h-0.076h-0.075h-0.119h-0.076h-0.078h-0.08h-0.076h-0.081h-0.076
		h-0.078h-0.078c-4.048,0.935-6.848,3.113-8.406,6.538l-0.154,1.36l0.154,1.209c0.208,0.361,0.351,0.686,0.429,0.971
		c0.36,0.413,0.624,0.766,0.776,1.052l0.156,0.077l0.157,0.195l1.128,0.777c0.4,0.111,0.767,0.168,1.1,0.168
		c1.058,0,1.795-0.562,2.211-1.685c0.622-1.816,0.141-3.23-1.439-4.244c1.105-0.656,2.17-0.983,3.191-0.983
		c1.158,0,2.259,0.42,3.308,1.259c-1.273,1.269-1.844,2.7-1.717,4.281c1.149-0.856,2.302-1.287,3.46-1.287
		c0.804,0,1.609,0.208,2.418,0.624c1.868,1.557,2.7,3.556,2.49,5.994h-0.309h-0.235h-1.633c-0.085-0.008-0.168-0.009-0.248-0.009
		c-0.239,0-0.454,0.028-0.648,0.086h-0.583l-1.753,0.156h-0.348c-0.521,0.103-0.975,0.155-1.363,0.155l-0.349,0.077l-0.351,0.079
		h-0.235l-1.128,0.234c-0.337,0.103-0.637,0.17-0.894,0.192l-0.311,0.078c-0.415,0.182-0.795,0.286-1.13,0.312
		c-0.959,0.415-1.751,0.714-2.374,0.897c-0.286,0.207-0.559,0.335-0.818,0.387l-0.154,0.156c-0.262,0.156-0.494,0.273-0.702,0.351
		c-0.338,0.311-0.673,0.518-1.012,0.622l-0.425,0.427l-0.235,0.159l-0.156,0.076c-0.052,0.104-0.105,0.156-0.157,0.156
		c-0.442,0.543-0.855,0.947-1.245,1.204l-0.076,0.274l-0.159,0.155l-0.467,0.661l-0.076,0.233l-0.194,0.155l-0.699,1.479
		l-0.078,0.272l-0.116,0.235v0.232l-0.159,0.661c-0.104,0.286-0.179,0.559-0.232,0.817v0.622l-0.076,0.271v2.337
		c1.113,5.216,4.126,8.121,9.029,8.717c0.576,0.05,1.14,0.076,1.689,0.076c4.534,0,8.108-1.709,10.723-5.136h0.273
		c-0.181,3.297,0.983,5.036,3.501,5.217c1.091-0.081,1.907-0.222,2.455-0.429C197.21,614.497,193.853,601.785,186.379,597.557z
		 M186.264,629.86c-1.619,0.977-3.232,1.467-4.84,1.467c-1.075,0-2.146-0.216-3.214-0.652c-2.802-1.711-3.688-4.179-2.648-7.396
		c0.208-0.882,0.557-1.622,1.05-2.218l0.467-0.428c0.416-0.468,0.818-0.817,1.207-1.05l0.194-0.079l0.159-0.077l0.152-0.076
		l0.156-0.08l0.156-0.079l0.157-0.076c0.281-0.156,0.529-0.274,0.737-0.349c0.389-0.183,0.74-0.288,1.051-0.315
		c0.053-0.049,0.105-0.076,0.158-0.076c0.413-0.153,0.762-0.233,1.048-0.233c0.648-0.235,1.234-0.352,1.752-0.352
		c0.335-0.1,0.635-0.153,0.895-0.153h0.313l0.272-0.079h0.309h0.237l0.233-0.077h0.273c0.125,0.006,0.245,0.01,0.362,0.01
		c0.344,0,0.652-0.031,0.922-0.086h0.662c0.154-0.007,0.304-0.01,0.447-0.01c0.434,0,0.816,0.026,1.149,0.086
		C190.622,623.657,189.352,627.781,186.264,629.86z M425.217,604.833c0,5.619-1.828,8.426-5.489,8.426
		c-0.531,0-1.1-0.058-1.71-0.177c-1.841-0.828-2.306-2.074-1.4-3.734c0.652-1.005,1.492-1.507,2.525-1.507
		c0.567,0,1.193,0.152,1.874,0.457l0.079-1.093c-0.207-1.997-1.325-3.396-3.346-4.201c-0.343,1.428-1.223,2.557-2.648,3.385
		l-0.079-0.583c0.231-1.064,0.038-2.087-0.585-3.072c-0.038,0-0.073-0.003-0.108-0.003c-1.284,0-2.509,0.454-3.666,1.363
		c-2.024,2.154-1.944,4.373,0.232,6.653c0.311,0.234,0.727,0.482,1.248,0.741c0.363,0.285,0.828,0.506,1.4,0.662l0.158,0.195h0.269
		c0.234,0.153,0.556,0.31,0.975,0.466l0.273,0.078l0.156,0.117h0.231l0.154,0.075l0.273,0.158l0.664,0.233l0.309,0.076l0.896,0.508
		c0.283,0.103,0.621,0.273,1.012,0.506l0.194,0.077c0.235,0.209,0.572,0.403,1.014,0.584l0.391,0.389l0.268,0.117
		c0.315,0.312,0.744,0.674,1.285,1.09c0.235,0.389,0.572,0.805,1.015,1.244l0.076,0.232l0.076,0.197l0.158,0.156l0.273,0.584
		l0.153,0.233c0.312,0.829,0.506,1.907,0.584,3.229c0.205,4.437-1.869,7.642-6.225,9.613l-0.355,0.156l0.081,1.634v0.272
		l0.115,0.234v0.232v0.273v0.311l0.079,0.273v0.465c-0.547,0.016-1.081,0.022-1.603,0.022c-12.936,0-18.029-4.638-15.286-13.912
		c0.259-0.366,0.477-0.861,0.661-1.479l0.507-0.664l0.152-0.233l0.08-0.194l0.193-0.157l0.08-0.233
		c1.17-1.257,2.418-1.886,3.749-1.886c1.002,0,2.048,0.355,3.141,1.068c1.686,1.685,1.41,3.191-0.82,4.515
		c-0.337,0.093-0.666,0.141-0.988,0.141c-0.84,0-1.626-0.32-2.355-0.958l-0.195,0.08c-0.365,1.061-0.365,2.217,0,3.461
		c0.359,1.062,1.074,1.805,2.135,2.219c0.629-1.322,1.739-2.165,3.349-2.528c-0.439,0.96-0.595,2.051-0.468,3.267l1.64,0.116h0.232
		c0.138,0.007,0.271,0.01,0.406,0.01c2.761,0,4.662-1.301,5.703-3.901c0.234-1.504-0.092-2.958-0.974-4.357
		c-0.362-0.441-0.854-0.83-1.479-1.17c-0.027-0.051-0.091-0.103-0.195-0.153l-0.154-0.079l-0.155-0.194l-2.064-0.973l-1.32-0.429
		l-0.159-0.077l-0.154-0.076l-0.273-0.159l-0.31-0.076c-0.184-0.051-0.404-0.169-0.664-0.351c-0.232-0.052-0.478-0.157-0.735-0.31
		l-0.936-0.389l-1.206-0.816l-0.197-0.08l-0.156-0.154l-0.23-0.116c-0.026-0.051-0.08-0.105-0.154-0.158l-0.194-0.155l-0.196-0.077
		c-0.025-0.052-0.076-0.104-0.156-0.156c-0.182-0.285-0.451-0.571-0.816-0.857l-0.115-0.153l-0.158-0.08l-0.31-0.504l-0.196-0.08
		l-0.544-1.05c-1.738-3.94-0.95-7.536,2.372-10.779c-0.076-0.386-0.247-0.881-0.506-1.479v-0.232l-0.154-0.272
		c0-0.079-0.023-0.156-0.075-0.233l-0.158-0.817l-0.075-0.273c0.257-0.103,0.58-0.181,0.969-0.234
		c0.156-0.026,0.363-0.102,0.627-0.232l0.657-0.194l0.665-0.079l1.05-0.232l0.426-0.08l0.895-0.073l0.742-0.119l0.197-0.078
		c0.058,0.007,0.115,0.011,0.173,0.011c0.168,0,0.33-0.031,0.483-0.089h0.159h0.151h0.08h0.076h0.08h0.117h0.077h0.079h0.076h0.078
		h0.078h0.078h0.08h0.114c0.49-0.033,0.964-0.049,1.419-0.049C421.337,596.144,424.663,599.041,425.217,604.833z M397.316,611.8
		v-0.235l-0.078-0.273v-0.23v-0.234c-0.105-0.233-0.129-0.453-0.078-0.663c-0.132-0.26-0.181-0.505-0.154-0.737
		c-2.036-8.189-6.897-12.283-14.578-12.283c-0.349,0-0.706,0.007-1.068,0.024l-0.311,0.116c-0.309,0-0.583,0.027-0.815,0.076h-0.237
		l-0.427,0.078l-0.234,0.078h-0.312c-0.051,0.052-0.115,0.078-0.194,0.078l-0.62,0.156l-0.664,0.155
		c-0.311,0.207-0.637,0.324-0.975,0.35c-0.282,0.207-0.581,0.337-0.893,0.388l-0.23,0.156c-0.364,0.235-0.664,0.377-0.896,0.428
		l-0.08,0.156l-0.271,0.076c-0.518,0.418-0.97,0.716-1.361,0.897l-0.234,0.232l-0.273,0.197c-0.053,0.077-0.103,0.128-0.156,0.153
		l-0.232,0.234l-0.234,0.156l-0.192,0.232l-0.508,0.506c-0.31,0.442-0.636,0.807-0.971,1.088c-3.139,4.725-4.502,9.679-4.086,14.868
		c1.348,10.873,7.422,16.307,18.209,16.307l-0.073,0.391c-0.315,0.699-0.52,1.297-0.625,1.79h0.31l0.315-0.08h0.27h0.234
		l0.232-0.076h0.233h0.273c0.454-0.158,0.857-0.237,1.211-0.237c0.051,0,0.103,0,0.152,0.005l0.232-0.119l1.478-0.31
		c8.33-2.361,10.599-6.551,6.811-12.572l-0.195-0.076l-0.073-0.158c-0.239-0.179-0.418-0.373-0.548-0.58l-0.582-0.312l-0.471-0.313
		c-0.433-0.098-0.845-0.148-1.236-0.148c-1.237,0-2.254,0.503-3.043,1.511c-0.338,1.116-0.038,1.895,0.894,2.337
		c0.439,0.203,0.855,0.306,1.248,0.306c0.656,0,1.254-0.284,1.789-0.853c0.416,1.065,0.47,2.063,0.157,2.998l-1.751,0.581
		c-0.589-0.444-1.196-0.67-1.822-0.67c-0.067,0-0.134,0.004-0.204,0.009h0.011h0.067l0.429,0.974
		c-1.89,0.36-3.633,0.538-5.225,0.538c-6.921,0-11.004-3.398-12.252-10.19c-0.076-0.414-0.129-0.739-0.151-0.972v-0.232v-0.975
		h0.659h0.235h0.232h2.531h0.506h0.232h1.05h0.509h0.544h0.508h0.389h0.503h0.314h1.441h0.894h0.312h0.349h0.31h0.315h0.27h0.315
		h0.233h0.346h1.442h0.351h0.232h1.637h0.31h0.232h1.48h1.052h0.269h1.402h0.234l0.974-0.078c0.648-0.157,1.169-0.322,1.558-0.505
		l0.815-0.976l0.158-0.661v-0.309v-0.235v-0.272v-0.231v-1.052v-0.232l-0.08-0.352V611.8z M391.015,612.423l-0.159,0.076
		c-0.854,0.313-1.596,0.493-2.217,0.546h-0.235l-0.896,0.115c-0.178-0.018-0.346-0.025-0.506-0.025c-0.327,0-0.61,0.034-0.852,0.104
		h-0.742c-0.549,0-1.011-0.026-1.398-0.08h-0.238h-0.658c-0.494,0-0.922-0.038-1.284-0.115c-0.173,0.018-0.339,0.026-0.5,0.026
		c-0.314,0-0.603-0.035-0.862-0.105h-0.742h-0.389c-0.604-0.107-1.113-0.161-1.538-0.161c-0.09,0-0.172,0.003-0.252,0.007
		l-0.152-0.08h-0.663l-0.543-0.076h-0.433l-0.308-0.077c-0.418,0-0.739-0.025-0.977-0.079h-0.424l-0.235-0.076
		c-0.597-0.025-1.091-0.077-1.48-0.156c0.571-5.084,3.008-8.472,7.319-10.159h0.268c0.728-0.155,1.326-0.244,1.796-0.271
		c5.651,0.337,8.974,3.113,9.96,8.327C391.749,611.073,391.528,611.827,391.015,612.423z M161.899,603.977
		c1.274,1.971,1.909,7.042,1.909,15.215v1.946v0.468v2.763v0.7v0.622v0.664v2.098v7.903v1.013l-0.116,0.778l-0.154,0.814
		c-0.313,0.728-0.583,1.634-0.82,2.728c-2.206,3.816-5.22,5.725-9.044,5.725c-1.972,0-4.159-0.509-6.56-1.523l-1.596-1.438
		l-0.116-0.314l-0.353-0.155c-0.103-0.31-0.246-0.637-0.426-0.974c-0.544-1.996-0.141-3.877,1.204-5.641l1.287-0.702
		c3.089,0.753,4.072,2.687,2.957,5.799c0.217,0.021,0.431,0.029,0.644,0.029c1.495,0,2.902-0.475,4.221-1.428l0.662-0.977
		l0.622-1.129c-1.658-0.416-2.957-1.504-3.889-3.267c0.482,0.147,0.965,0.221,1.448,0.221c1.048,0,2.096-0.347,3.142-1.04v-22.145
		l-0.351-1.942l-0.194-0.507c-0.103-0.832-0.362-1.741-0.778-2.722l-0.197-0.315l-0.154-0.349l-0.154-0.351
		c-1.824-2.289-4.326-3.431-7.514-3.431c-0.353,0-0.715,0.013-1.086,0.042c-3.453,0.937-6.034,3.207-7.746,6.812
		c-0.259,0.886-0.442,1.961-0.545,3.229v1.285v2.298v0.465v1.638v0.503v2.725v2.103v0.662v2.061v0.818v3.309v1.205v2.182v0.426
		v0.508v0.973c-2.751-1.322-5.136-3.593-7.16-6.811l0.04-36.7l0.232-2.605v-0.468l0.116-0.311v-0.856l0.157-0.353v-0.621
		l0.151-0.973c0.313-1.064,0.872-2.297,1.677-3.695l0.116-0.508l0.351-0.312l0.157-0.507c1.58-1.66,3.581-2.789,5.991-3.386
		c0.112,0,0.219-0.003,0.329-0.003c8.763,0,12.379,3.132,10.842,9.383c-0.465,0.519-1.105,1.129-1.909,1.83
		c-3.5-0.313-4.59-2.31-3.267-5.996c-0.463-0.088-0.903-0.13-1.328-0.13c-2.091,0-3.698,1.066-4.821,3.207
		c1.531,0.492,2.606,1.62,3.23,3.385c-0.784-0.309-1.486-0.464-2.105-0.464c-1.301,0-2.235,0.686-2.798,2.06v1.944v0.467v3.387
		v0.661v1.946v0.468v2.76v1.015c2.749-4.228,6.848-6.513,12.296-6.85C155.246,597.35,159.047,599.566,161.899,603.977z
		 M120.827,598.041c-0.186,0-0.376-0.007-0.568-0.02c-1.555-0.207-2.776-1.037-3.656-2.487c0.254-2.585,1.348-3.877,3.286-3.877
		c0.63,0,1.35,0.138,2.163,0.412l0.427,0.193c0.413-2.438-0.494-4.461-2.725-6.07l-0.815-0.232c-0.44,1.733-1.571,3.008-3.39,3.813
		c0.315-1.272,0.237-2.646-0.23-4.125l-0.31-0.314c-1.091-0.152-2.17-0.228-3.237-0.228c-4.919,0-9.574,1.618-13.966,4.861
		c-4.047,3.736-6.331,8.613-6.85,14.634c-0.081,0.312-0.105,0.662-0.081,1.052c-0.076,0.31-0.116,0.736-0.116,1.282v1.79v0.313
		v0.311c0.081,0.286,0.116,0.637,0.116,1.05v0.311c0.054,0.286,0.081,0.637,0.081,1.053l0.116,0.311
		c0,0.494,0.105,1.078,0.311,1.752v0.425l0.119,0.196c0.022,0.232,0.089,0.48,0.192,0.74l0.197,0.856
		c0.048,0.286,0.154,0.56,0.313,0.818v0.311l0.311,0.544c1.656,4.621,4.955,8.045,9.885,10.274c2.789,1.173,5.739,1.758,8.859,1.758
		c2.132,0,4.342-0.275,6.628-0.823l1.674-0.118l0.815,0.118l1.676,0.7l0.308,0.116l0.119,0.236l0.701,0.309l1.048,0.817l0.313,0.117
		c0.022,0.051,0.103,0.118,0.235,0.194l0.194,0.196l0.31,0.116l0.935,0.934c-4.796,2.104-9.84,3.154-15.132,3.154
		c-3.33,0-6.756-0.416-10.281-1.247l-2.297-0.975l-0.389-0.076l-0.429-0.233c-0.465-0.155-0.984-0.43-1.556-0.816l-0.313-0.118
		l-0.311-0.079l-1.826-1.282l-1.168-0.817l-0.195-0.193l-1.56-1.363l-0.116-0.232l-0.309-0.197
		c-0.156-0.258-0.404-0.504-0.741-0.737c-0.206-0.469-0.583-0.961-1.127-1.479c-0.105-0.261-0.286-0.509-0.545-0.741l-0.197-0.312
		l-0.194-0.426c-0.027-0.08-0.103-0.143-0.232-0.197l-0.391-0.973l-0.619-0.933c0-0.05-0.043-0.114-0.119-0.194
		c0-0.079-0.04-0.145-0.116-0.193c0.024-0.078-0.013-0.158-0.116-0.232c0.024-0.054,0-0.12-0.08-0.196l-0.854-2.297l-0.313-0.737
		c0.026-0.105,0-0.211-0.076-0.311c0-0.104-0.04-0.207-0.116-0.315c-0.027-0.359-0.13-0.75-0.315-1.164l-0.311-1.674
		c-0.054-0.211-0.089-0.48-0.116-0.82c-1.528-7.703-0.246-15.305,3.853-22.805c0.443-0.467,0.935-1.128,1.48-1.982l0.194-0.196
		l0.235-0.233l0.076-0.31l0.311-0.194l0.235-0.314l0.312-0.313l0.192-0.308l0.935-0.896l0.313-0.429
		c0.492-0.233,0.945-0.608,1.358-1.126c0.523-0.237,1.055-0.626,1.601-1.171l0.349-0.075l0.31-0.313
		c0.311-0.102,0.624-0.286,0.937-0.546l0.738-0.31l0.311-0.31c0.439-0.156,0.985-0.404,1.635-0.74l0.351-0.078l0.192-0.116
		l0.313-0.115c0.208-0.108,0.48-0.209,0.817-0.315l0.309-0.196c0.105,0,0.21-0.036,0.313-0.116l0.429-0.116l0.935-0.191l0.232-0.118
		c-0.154-0.365-0.44-0.674-0.854-0.935v-0.312c0.675-0.054,1.475-0.221,2.409-0.505h0.313h0.313l0.308-0.118
		c0.105,0,0.21-0.038,0.313-0.115h0.313c0.362,0,0.751-0.067,1.167-0.196h0.313c0.178,0,0.388-0.038,0.621-0.115h0.742h0.385
		c0.353-0.058,0.755-0.088,1.209-0.088c0.15,0,0.305,0.003,0.465,0.009h0.315c0.099,0,0.206-0.039,0.309-0.115l1.906,0.115h0.7
		h0.429h0.313l0.31,0.079h0.31c0.311,0.077,0.675,0.115,1.091,0.115l0.429,0.117l0.311,0.079h0.426l0.389,0.115l0.429,0.118
		l1.671,0.505l0.313,0.117l2.414,1.05l0.622,0.505l0.621,0.43l0.121,0.197l0.311,0.115l0.504,0.505
		c3.038,4.307,3.113,8.888,0.233,13.737C124.398,597.273,122.833,598.041,120.827,598.041z"/>
</g>
</svg>
