<svg width="45" height="49" viewBox="0 0 45 49" fill="none" xmlns="http://www.w3.org/2000/svg">
<g clip-path="url(#clip0)">
<path d="M23.6971 27.0953L23.4782 27.0305L23.0792 26.5892L23.002 26.0312L22.5772 25.9404L22.1009 25.8106L21.8178 25.616L21.5861 25.4862L21.1356 25.7847L21.1484 25.5122L20.891 25.59L20.5563 25.7977L20.2731 25.8236L19.681 26.0702L19.1018 26.2389L18.8315 27.0694L18.5741 27.1732L18.7543 27.4198L18.8057 27.7571L18.4711 27.8999L18.8701 28.1075L18.6384 28.3541L19.0503 28.7434L19.3592 29.2624H19.7068L20.0801 29.4182L20.6335 29.6388L20.8524 29.5869L21.1098 29.9243L21.3158 29.6517L21.7277 29.6388L21.8692 29.7815L22.1524 29.5739L22.5257 29.4571L22.9247 29.0159L23.1178 28.9121L23.6198 28.4968L23.6713 27.8739L23.5555 27.4198L23.6971 27.0953ZM20.2474 27.7182L21.1484 26.7969L22.0623 27.7182L21.1484 28.6525L20.2474 27.7182ZM37.1868 11.134C36.3887 12.4057 35.4619 13.2881 34.4064 14.2225C34.2391 13.5477 35.9253 11.692 37.1868 11.134ZM33.0291 14.9492C32.038 15.9354 31.0598 16.9346 30.0944 17.9338C29.7468 18.2842 30.0043 18.5177 30.4162 18.8422C31.5103 17.5056 32.5658 16.2079 33.6341 14.9102C33.5826 14.8453 33.5183 14.7934 33.4668 14.7285C33.3123 14.8064 33.1321 14.8453 33.0291 14.9492ZM26.5675 16.1041C26.5803 16.1171 26.6061 16.1171 26.619 16.1171C26.7219 16.1171 26.8635 16.0522 26.9279 15.9743C27.0437 15.8445 27.1081 15.6758 27.1853 15.5071C29.4765 10.8226 31.5746 6.06011 33.2866 1.12897C33.3767 0.869436 33.4668 0.609903 33.544 0.337392C33.5054 0.324415 33.4797 0.311439 33.441 0.298462C33.3767 0.389299 33.3123 0.467159 33.2608 0.557996C30.8667 5.37235 28.3567 10.1478 26.5031 15.2217C26.4388 15.3904 26.3615 15.5591 26.3615 15.7278C26.3744 15.8705 26.4645 16.0651 26.5675 16.1041ZM16.0383 15.4293C16.167 15.7018 16.5274 16.1171 16.6433 16.1171H16.6561C17.1968 15.8835 16.7977 15.4682 16.6948 15.1698C15.06 10.5371 12.7688 6.20286 10.6192 1.80376C10.3747 1.31064 10.1172 0.830506 9.85981 0.337392C9.80832 0.350369 9.75683 0.363345 9.71822 0.389299C9.79545 0.635856 9.87268 0.882413 9.96278 1.12897C11.6747 6.03416 13.76 10.7707 16.0383 15.4293ZM6.24282 11.705C6.89928 12.8729 7.78744 13.8072 8.88155 14.6637C8.98452 13.9759 7.47852 12.3149 6.24282 11.705ZM13.1035 18.3101C12.1896 17.3888 11.2886 16.4415 10.3618 15.5201C10.2073 15.3644 9.98853 15.2995 9.79545 15.1957C9.75683 15.2346 9.71822 15.2865 9.6796 15.3255C9.79545 15.4942 9.88555 15.6888 10.0143 15.8445C10.8381 16.8567 11.6619 17.8689 12.5114 18.8551C12.6144 18.9719 12.8718 19.1017 13.0263 19.1017C13.0649 19.1017 13.0906 19.1017 13.1164 19.0887C13.4382 18.8681 13.3738 18.5826 13.1035 18.3101ZM9.30632 25.9664C7.04087 25.4213 4.77543 24.8374 2.49711 24.2924C2.43275 24.2794 2.35552 24.2664 2.27829 24.2664C2.08521 24.2664 1.85351 24.3053 1.58321 24.3183C2.09808 24.9931 7.92903 26.8099 9.85981 27.0175C10.04 26.4335 9.9113 26.1091 9.30632 25.9664ZM21.6633 12.6653C21.6504 10.589 21.5989 8.52569 21.5475 6.44942C21.5475 6.22881 21.4445 6.00821 21.393 5.80058C21.3029 5.81356 21.2128 5.81356 21.1356 5.82653C21.0197 8.35699 20.9039 10.8745 20.788 13.4439C21.5603 13.3011 21.6633 13.2622 21.6633 12.6653ZM11.6876 21.3726C8.25083 19.8673 4.82691 18.349 1.403 16.8308C1.09408 16.688 0.772279 16.5972 0.296021 16.4285C1.62182 17.7391 9.21621 21.6062 11.9708 22.4108C12.3312 21.9176 12.2282 21.6192 11.6876 21.3726ZM40.7136 24.2275C40.6107 24.2275 40.5206 24.2405 40.4305 24.2534C38.165 24.7985 35.8996 25.3824 33.6213 25.9274C33.042 26.0702 32.8618 26.3686 33.042 26.9526C33.1321 26.9656 33.1707 26.9785 33.2094 26.9785C33.2222 26.9785 33.2222 26.9785 33.2351 26.9785C35.7194 26.2908 38.2036 25.59 40.6879 24.8893C40.9067 24.8244 41.0869 24.6168 41.28 24.474C41.2543 24.3962 41.2414 24.3183 41.2156 24.2405C41.0483 24.2405 40.881 24.2275 40.7136 24.2275ZM44.6138 23.0726C44.0217 23.2413 43.4167 23.41 42.8246 23.6046C42.7345 23.6306 42.6959 23.8382 42.6316 23.955C42.7345 24.0069 42.8761 24.1367 42.9662 24.1367C42.9791 24.1367 42.9791 24.1367 42.992 24.1367C43.5712 23.8771 44.1376 23.5916 44.7168 23.3191C44.6782 23.2283 44.6524 23.1504 44.6138 23.0726ZM31.4717 22.0734C34.2262 21.2688 41.8335 17.4017 43.1207 16.1171C42.786 16.2209 42.5672 16.2728 42.3484 16.3636C38.7957 17.9208 35.256 19.504 31.7033 21.0612C31.1499 21.2948 31.1627 21.6192 31.4717 22.0734ZM12.3055 48.3512L3.39814 48.6756L7.95477 40.9545L12.1896 33.1165L16.5403 25.3565L21.1613 17.4926L25.4348 25.5511L29.7211 33.3501L34.3678 40.9415L38.9373 48.6756L29.9914 48.5328L21.1484 48.5588L12.3055 48.3512ZM24.5466 33.5058L24.0317 33.986L27.4942 45.9764L27.9705 47.4298L37.058 47.5726L31.9737 38.6446L27.0695 29.6777L24.5466 33.5058ZM19.3335 23.2283L22.8218 23.2802L23.1049 23.2023L21.1356 19.6467L19.3335 23.2283ZM17.3384 27.0953L17.4671 27.4068L17.6473 28.2892L17.8146 28.7174L18.0463 29.3922L18.5612 30.0281L19.179 30.1449L19.4107 30.3136L19.8612 30.3006L19.9256 30.5601L20.1058 30.5471L20.3375 30.4433L20.492 30.625L20.3632 30.7677L20.7237 32.3509L20.4791 32.4936L20.0929 32.3898L20.0672 32.4936L20.2345 33.7524L20.0929 33.96L20.4147 33.8562L20.6722 33.947L20.4405 46.9886L20.5306 47.1314L20.6464 47.1184L20.6979 47.3779L21.0583 47.6115L21.2514 47.4817L21.6376 47.3649L21.689 47.0535L21.8435 45.3665L23.0406 45.12L22.9376 45.2887L23.0148 45.8207L23.195 46.0673L25.3446 46.0413V45.8986L25.4734 44.9513L24.8169 45.081L24.9456 44.9253L24.5723 44.1727L24.8169 44.2895L25.3318 44.1986L25.2932 44.0948L25.4991 43.1345L24.8298 43.3551L24.804 43.1216L24.8298 42.4597L25.306 42.317L25.3318 42.33L25.6278 41.4216L25.3833 41.5514L23.1693 41.2529L22.9762 41.4865L23.2079 41.9796L23.0148 42.0445L21.8564 42.291L21.8049 41.9537L21.6633 33.9989L21.9722 33.8302L21.8435 33.5967L22.2683 33.973L22.4356 33.7005L22.3326 32.4547L22.2811 32.5066L21.8564 32.5975L21.9079 32.299L21.5732 30.8586L21.6762 30.638L21.8821 30.5212L22.191 30.4174L22.5128 30.4433L22.6287 30.2617L22.8861 30.2487L23.4911 30.1708L23.7614 29.5609L24.2248 29.5869L24.405 28.9121L24.8298 28.4968L24.5723 28.1075L25.0229 27.6533L24.6624 27.3419L24.5595 27.2251L24.4822 26.719L23.9416 25.7198L23.4782 25.4213L22.9119 25.1229L22.3455 25.045L22.1267 24.5519L21.8692 24.7336L21.496 24.5649L20.6979 24.6946L20.2088 24.6817L19.7969 24.7595L19.385 25.1229L18.8572 25.4733L18.5097 25.6679L17.9433 25.8236L17.9819 25.9793L17.7245 26.2778L17.5314 26.6412L17.3384 27.0953ZM5.07148 47.6504L14.3263 47.4558L14.5709 47.2481L16.4888 40.643L18.0077 33.9341L17.7245 33.5448L15.369 29.7945L10.3103 38.6576L5.07148 47.6504Z" fill="#00A3FF"/>
</g>
<defs>
<clipPath id="clip0">
<rect width="45" height="49" fill="white"/>
</clipPath>
</defs>
</svg>
