<?xml version="1.0" encoding="utf-8"?>
<!-- Generator: Adobe Illustrator 24.2.1, SVG Export Plug-In . SVG Version: 6.00 Build 0)  -->
<svg version="1.1" id="Layer_1" xmlns="http://www.w3.org/2000/svg" xmlns:xlink="http://www.w3.org/1999/xlink" x="0px" y="0px"
	 viewBox="0 0 350 380" style="enable-background:new 0 0 350 380;" xml:space="preserve">
<style type="text/css">
	.st0{fill:#FFCE02;}
</style>
<g>
	<path class="st0" d="M184.3,210.1l-1.7-0.5l-3.1-3.4l-0.6-4.3l-3.3-0.7l-3.7-1l-2.2-1.5l-1.8-1l-3.5,2.3l0.1-2.1l-2,0.6l-2.6,1.6
		l-2.2,0.2l-4.6,1.9l-4.5,1.3l-2.1,6.4l-2,0.8l1.4,1.9l0.4,2.6l-2.6,1.1l3.1,1.6l-1.8,1.9l3.2,3l2.4,4h2.7l2.9,1.2l4.3,1.7l1.7-0.4
		l2,2.6l1.6-2.1l3.2-0.1l1.1,1.1l2.2-1.6l2.9-0.9l3.1-3.4l1.5-0.8l3.9-3.2l0.4-4.8l-0.9-3.5L184.3,210.1z M157.4,214.9l7-7.1
		l7.1,7.1l-7.1,7.2L157.4,214.9z M289,87.1c-6.2,9.8-13.4,16.6-21.6,23.8C266.1,105.7,279.3,91.4,289,87.1z M256.8,116.5
		c-7.7,7.6-15.3,15.3-22.8,23c-2.7,2.7-0.7,4.5,2.5,7c8.5-10.3,16.7-20.3,25-30.3c-0.4-0.5-0.9-0.9-1.3-1.4
		C258.9,115.4,257.5,115.7,256.8,116.5z M206.5,125.4c0.1,0.1,0.3,0.1,0.4,0.1c0.8,0,1.9-0.5,2.4-1.1c0.9-1,1.4-2.3,2-3.6
		C229.1,84.7,245.4,48,258.7,10c0.7-2,1.4-4,2-6.1c-0.3-0.1-0.5-0.2-0.8-0.3c-0.5,0.7-1,1.3-1.4,2c-18.6,37.1-38.1,73.9-52.5,113
		c-0.5,1.3-1.1,2.6-1.1,3.9C205,123.6,205.8,125.1,206.5,125.4z M124.7,120.2c1,2.1,3.8,5.3,4.7,5.3h0.1c4.2-1.8,1.1-5,0.3-7.3
		c-12.7-35.7-30.5-69.1-47.2-103c-1.9-3.8-3.9-7.5-5.9-11.3c-0.4,0.1-0.8,0.2-1.1,0.4c0.6,1.9,1.2,3.8,1.9,5.7
		C90.8,47.8,107,84.3,124.7,120.2z M48.6,91.5c5.1,9,12,16.2,20.5,22.8C69.9,109,58.2,96.2,48.6,91.5z M101.9,142.4
		c-7.1-7.1-14.1-14.4-21.3-21.5c-1.2-1.2-2.9-1.7-4.4-2.5c-0.3,0.3-0.6,0.7-0.9,1c0.9,1.3,1.6,2.8,2.6,4
		c6.4,7.8,12.8,15.6,19.4,23.2c0.8,0.9,2.8,1.9,4,1.9c0.3,0,0.5,0,0.7-0.1C104.5,146.7,104,144.5,101.9,142.4z M72.4,201.4
		c-17.6-4.2-35.2-8.7-52.9-12.9c-0.5-0.1-1.1-0.2-1.7-0.2c-1.5,0-3.3,0.3-5.4,0.4c4,5.2,49.3,19.2,64.3,20.8
		C78.1,205,77.1,202.5,72.4,201.4z M168.4,98.9c-0.1-16-0.5-31.9-0.9-47.9c0-1.7-0.8-3.4-1.2-5c-0.7,0.1-1.4,0.1-2,0.2
		c-0.9,19.5-1.8,38.9-2.7,58.7C167.6,103.8,168.4,103.5,168.4,98.9z M90.9,166c-26.7-11.6-53.3-23.3-79.9-35
		c-2.4-1.1-4.9-1.8-8.6-3.1C12.7,138,71.7,167.8,93.1,174C95.9,170.2,95.1,167.9,90.9,166z M316.4,188c-0.8,0-1.5,0.1-2.2,0.2
		c-17.6,4.2-35.2,8.7-52.9,12.9c-4.5,1.1-5.9,3.4-4.5,7.9c0.7,0.1,1,0.2,1.3,0.2c0.1,0,0.1,0,0.2,0c19.3-5.3,38.6-10.7,57.9-16.1
		c1.7-0.5,3.1-2.1,4.6-3.2c-0.2-0.6-0.3-1.2-0.5-1.8C319,188.1,317.8,188,316.4,188z M346.8,179.1c-4.6,1.3-9.3,2.6-13.9,4.1
		c-0.7,0.2-1,1.8-1.5,2.7c0.8,0.4,1.9,1.4,2.6,1.4c0.1,0,0.1,0,0.2,0c4.5-2,8.9-4.2,13.4-6.3C347.3,180.3,347,179.7,346.8,179.1z
		 M244.6,171.4c21.4-6.2,80.5-36,90.5-45.9c-2.6,0.8-4.3,1.2-6,1.9c-27.6,12-55.1,24.2-82.7,36.2
		C242.1,165.4,242.3,167.9,244.6,171.4z M95.7,373.9l-69.2,2.5l35.4-59.5l32.9-60.4l33.8-59.8l35.9-60.6l33.2,62.1l33.3,60.1
		l36.1,58.5l35.5,59.6l-69.5-1.1l-68.7,0.2L95.7,373.9z M190.8,259.5l-4,3.7l26.9,92.4l3.7,11.2l70.6,1.1l-39.5-68.8L210.4,230
		L190.8,259.5z M150.3,180.3l27.1,0.4l2.2-0.6l-15.3-27.4L150.3,180.3z M134.8,210.1l1,2.4l1.4,6.8l1.3,3.3l1.8,5.2l4,4.9l4.8,0.9
		l1.8,1.3l3.5-0.1l0.5,2l1.4-0.1l1.8-0.8l1.2,1.4l-1,1.1l2.8,12.2l-1.9,1.1l-3-0.8l-0.2,0.8l1.3,9.7l-1.1,1.6l2.5-0.8l2,0.7
		l-1.8,100.5l0.7,1.1l0.9-0.1l0.4,2l2.8,1.8l1.5-1l3-0.9l0.4-2.4l1.2-13l9.3-1.9l-0.8,1.3l0.6,4.1l1.4,1.9l16.7-0.2V355l1-7.3
		l-5.1,1l1-1.2l-2.9-5.8l1.9,0.9l4-0.7l-0.3-0.8l1.6-7.4l-5.2,1.7l-0.2-1.8l0.2-5.1l3.7-1.1l0.2,0.1l2.3-7l-1.9,1l-17.2-2.3
		l-1.5,1.8l1.8,3.8l-1.5,0.5l-9,1.9l-0.4-2.6l-1.1-61.3l2.4-1.3l-1-1.8l3.3,2.9l1.3-2.1l-0.8-9.6l-0.4,0.4l-3.3,0.7l0.4-2.3
		l-2.6-11.1l0.8-1.7l1.6-0.9l2.4-0.8l2.5,0.2l0.9-1.4l2-0.1l4.7-0.6l2.1-4.7l3.6,0.2l1.4-5.2l3.3-3.2l-2-3l3.5-3.5l-2.8-2.4
		l-0.8-0.9l-0.6-3.9l-4.2-7.7l-3.6-2.3l-4.4-2.3l-4.4-0.6l-1.7-3.8l-2,1.4l-2.9-1.3l-6.2,1l-3.8-0.1l-3.2,0.6l-3.2,2.8l-4.1,2.7
		l-2.7,1.5l-4.4,1.2l0.3,1.2l-2,2.3l-1.5,2.8L134.8,210.1z M39.5,368.5l71.9-1.5l1.9-1.6l14.9-50.9l11.8-51.7l-2.2-3l-18.3-28.9
		l-39.3,68.3L39.5,368.5z"/>
</g>
</svg>
