<?xml version="1.0" encoding="utf-8"?>
<!-- Generator: Adobe Illustrator 24.2.1, SVG Export Plug-In . SVG Version: 6.00 Build 0)  -->
<svg version="1.1" id="Layer_1" xmlns="http://www.w3.org/2000/svg" xmlns:xlink="http://www.w3.org/1999/xlink" x="0px" y="0px"
	 viewBox="0 0 349.6 377.6" style="enable-background:new 0 0 349.6 377.6;" xml:space="preserve">
<style type="text/css">
	.st0{fill:none;}
</style>
<g>
	<polygon points="240.2,407.2 240.3,407.2 240.3,406.8 	"/>
	<polygon points="216.7,429.8 216.8,429.8 216.8,429.3 	"/>
	<path class="st0" d="M93.6,167.2c5.1,9.1,12.2,16.4,20.8,23.1C115.2,184.9,103.4,171.9,93.6,167.2z"/>
	<path class="st0" d="M377.8,203.5C349.9,215.7,322,228,294,240.2c-4.3,1.9-4.2,4.4-1.8,7.9c21.7-6.3,81.6-36.5,91.7-46.5
		C381.3,202.4,379.5,202.8,377.8,203.5z"/>
	<path class="st0" d="M309.1,192.3c-0.4-0.5-0.9-0.9-1.3-1.4c-1.2,0.5-2.6,0.7-3.4,1.6c-7.8,7.7-15.5,15.5-23.1,23.4
		c-2.7,2.8-0.7,4.6,2.5,7.1C292.4,212.5,300.8,202.4,309.1,192.3z"/>
	<path class="st0" d="M337.2,162.7c-10,4.3-23.2,18.8-21.9,24.1C323.6,179.5,331,172.6,337.2,162.7z"/>
	<path class="st0" d="M306.4,80.2c-18.9,37.6-38.6,74.9-53.2,114.5c-0.5,1.3-1.1,2.6-1.1,4c0,1,0.7,2.5,1.5,2.8
		c0.1,0.1,0.3,0.1,0.4,0.1c0.8,0,1.9-0.6,2.5-1.1c0.9-1,1.4-2.4,2-3.6c18.1-36.5,34.6-73.7,48.1-112.2c0.7-2,1.4-4.1,2.1-6.1
		c-0.3-0.1-0.5-0.2-0.8-0.3C307.3,78.8,306.8,79.5,306.4,80.2z"/>
	<path class="st0" d="M126,196.9c-1.2-1.2-3-1.7-4.5-2.6c-0.3,0.3-0.6,0.7-0.9,1c0.9,1.4,1.6,2.8,2.6,4.1c6.5,7.9,13,15.8,19.7,23.5
		c0.8,1,2.9,1.9,4.1,1.9c0.3,0,0.5,0,0.7-0.2c2.5-1.6,2.1-3.8-0.1-6C140.4,211.5,133.3,204.1,126,196.9z"/>
	<path class="st0" d="M381.6,260c-0.7,0.2-1,1.8-1.5,2.8c0.8,0.4,1.9,1.4,2.6,1.4c0.1,0,0.1,0,0.2,0c4.6-2,9.1-4.2,13.6-6.4
		c-0.2-0.6-0.5-1.3-0.7-1.9C391,257.2,386.2,258.4,381.6,260z"/>
	<path class="st0" d="M136.4,242.6c-27-11.7-54-23.7-81-35.5c-2.4-1.1-5-1.8-8.7-3.1c10.4,10.3,70.2,40.4,91.9,46.7
		C141.5,246.8,140.7,244.5,136.4,242.6z"/>
	<path class="st0" d="M128.1,89.8c-1.9-3.9-4-7.6-5.9-11.5c-0.4,0.1-0.8,0.3-1.1,0.4c0.6,1.9,1.2,3.9,1.9,5.8
		c13.5,38.3,29.9,75.4,47.9,111.7c1,2.1,3.9,5.3,4.8,5.3c0,0,0.1,0,0.1,0c4.2-1.8,1.2-5,0.3-7.4C163,158,145,124.1,128.1,89.8z"/>
	<path class="st0" d="M117.8,278.5c-17.9-4.2-35.7-8.8-53.6-13.1c-0.6-0.1-1.1-0.2-1.7-0.2c-1.6,0-3.3,0.3-5.4,0.4
		c4,5.2,50,19.5,65.1,21C123.5,282.1,122.5,279.6,117.8,278.5z"/>
	<path class="st0" d="M365,264.9c-0.8,0-1.5,0.1-2.2,0.2c-17.9,4.3-35.7,8.8-53.6,13.1c-4.6,1.1-6,3.5-4.5,8c0.7,0.1,1,0.2,1.3,0.2
		c0.1,0,0.1,0,0.2,0c19.5-5.4,39.1-10.8,58.6-16.4c1.7-0.5,3.1-2.1,4.7-3.2c-0.2-0.6-0.3-1.2-0.5-1.8
		C367.6,265,366.3,264.9,365,264.9z"/>
	<path class="st0" d="M212.9,121c-0.7,0.1-1.4,0.1-2.1,0.2c-0.9,19.7-1.8,39.4-2.7,59.4c6.2-1,7-1.4,6.9-6
		c-0.1-16.2-0.5-32.3-0.9-48.5C214.1,124.4,213.3,122.7,212.9,121z"/>
	<path d="M184.1,208.8l-1.7-0.5l-3.1-3.4l-0.6-4.3l-3.3-0.7l-3.7-1l-2.2-1.5l-1.8-1l-3.5,2.3l0.1-2.1l-2,0.6l-2.6,1.6l-2.2,0.2
		l-4.6,1.9l-4.5,1.3l-2.1,6.4l-2,0.8l1.4,1.9l0.4,2.6l-2.6,1.1l3.1,1.6l-1.8,1.9l3.2,3l2.4,4l2.7,0l2.9,1.2l4.3,1.7l1.7-0.4l2,2.6
		l1.6-2.1l3.2-0.1l1.1,1.1l2.2-1.6l2.9-0.9l3.1-3.4l1.5-0.8l3.9-3.2l0.4-4.8l-0.9-3.5L184.1,208.8z M157.3,213.6l7-7.1l7.1,7.1
		l-7.1,7.2L157.3,213.6z M288.9,85.8c-6.2,9.8-13.4,16.6-21.6,23.8C266,104.4,279.1,90.1,288.9,85.8z M256.6,115.2
		c-7.7,7.6-15.3,15.3-22.8,23c-2.7,2.7-0.7,4.5,2.5,7c8.5-10.3,16.7-20.3,25-30.3c-0.4-0.5-0.9-0.9-1.3-1.4
		C258.8,114.1,257.4,114.4,256.6,115.2z M206.4,124.1c0.1,0.1,0.3,0.1,0.4,0.1c0.8,0,1.9-0.5,2.4-1.1c0.9-1,1.4-2.3,2-3.6
		c17.8-36.1,34.1-72.8,47.4-110.8c0.7-2,1.4-4,2-6.1c-0.3-0.1-0.5-0.2-0.8-0.3c-0.5,0.7-1,1.3-1.4,2c-18.6,37.1-38.1,73.9-52.5,113
		c-0.5,1.3-1.1,2.6-1.1,3.9C204.9,122.3,205.6,123.8,206.4,124.1z M124.6,118.9c1,2.1,3.8,5.3,4.7,5.3c0,0,0.1,0,0.1,0
		c4.2-1.8,1.1-5,0.3-7.3C117,81.2,99.2,47.8,82.5,13.9c-1.9-3.8-3.9-7.5-5.9-11.3c-0.4,0.1-0.8,0.2-1.1,0.4c0.6,1.9,1.2,3.8,1.9,5.7
		C90.7,46.5,106.9,83,124.6,118.9z M48.5,90.2c5.1,9,12,16.2,20.5,22.8C69.8,107.7,58.1,94.9,48.5,90.2z M101.8,141.1
		c-7.1-7.1-14.1-14.4-21.3-21.5c-1.2-1.2-2.9-1.7-4.4-2.5c-0.3,0.3-0.6,0.7-0.9,1c0.9,1.3,1.6,2.8,2.6,4
		c6.4,7.8,12.8,15.6,19.4,23.2c0.8,0.9,2.8,1.9,4,1.9c0.3,0,0.5,0,0.7-0.1C104.4,145.4,103.9,143.2,101.8,141.1z M72.3,200.1
		c-17.6-4.2-35.2-8.7-52.9-12.9c-0.5-0.1-1.1-0.2-1.7-0.2c-1.5,0-3.3,0.3-5.4,0.4c4,5.2,49.3,19.2,64.3,20.8
		C78,203.7,77,201.2,72.3,200.1z M168.3,97.6c-0.1-16-0.5-31.9-0.9-47.9c0-1.7-0.8-3.4-1.2-5c-0.7,0.1-1.4,0.1-2,0.2
		c-0.9,19.5-1.8,38.9-2.7,58.7C167.5,102.5,168.3,102.2,168.3,97.6z M90.8,164.7c-26.7-11.6-53.3-23.3-79.9-35
		c-2.4-1.1-4.9-1.8-8.6-3.1c10.3,10.1,69.3,39.9,90.7,46.1C95.8,168.9,95,166.6,90.8,164.7z M316.3,186.7c-0.8,0-1.5,0.1-2.2,0.2
		c-17.6,4.2-35.2,8.7-52.9,12.9c-4.5,1.1-5.9,3.4-4.5,7.9c0.7,0.1,1,0.2,1.3,0.2c0.1,0,0.1,0,0.2,0c19.3-5.3,38.6-10.7,57.9-16.1
		c1.7-0.5,3.1-2.1,4.6-3.2c-0.2-0.6-0.3-1.2-0.5-1.8C318.9,186.8,317.6,186.7,316.3,186.7z M346.6,177.8c-4.6,1.3-9.3,2.6-13.9,4.1
		c-0.7,0.2-1,1.8-1.5,2.7c0.8,0.4,1.9,1.4,2.6,1.4c0.1,0,0.1,0,0.2,0c4.5-2,8.9-4.2,13.4-6.3C347.1,179,346.9,178.4,346.6,177.8z
		 M244.5,170.1c21.4-6.2,80.5-36,90.5-45.9c-2.6,0.8-4.3,1.2-6,1.9c-27.6,12-55.1,24.2-82.7,36.2C242,164.1,242.1,166.6,244.5,170.1
		z M95.6,372.6l-69.2,2.5l35.4-59.5l32.9-60.4l33.8-59.8l35.9-60.6l33.2,62.1l33.3,60.1l36.1,58.5l35.5,59.6L233,374l-68.7,0.2
		L95.6,372.6z M190.7,258.2l-4,3.7l26.9,92.4l3.7,11.2l70.6,1.1l-39.5-68.8l-38.1-69.1L190.7,258.2z M150.2,179l27.1,0.4l2.2-0.6
		l-15.3-27.4L150.2,179z M134.7,208.8l1,2.4l1.4,6.8l1.3,3.3l1.8,5.2l4,4.9l4.8,0.9l1.8,1.3l3.5-0.1l0.5,2l1.4-0.1l1.8-0.8l1.2,1.4
		l-1,1.1l2.8,12.2l-1.9,1.1l-3-0.8l-0.2,0.8l1.3,9.7l-1.1,1.6l2.5-0.8l2,0.7l-1.8,100.5l0.7,1.1l0.9-0.1l0.4,2l2.8,1.8l1.5-1l3-0.9
		l0.4-2.4l1.2-13l9.3-1.9l-0.8,1.3l0.6,4.1l1.4,1.9l16.7-0.2l0-1.1l1-7.3l-5.1,1l1-1.2l-2.9-5.8l1.9,0.9l4-0.7l-0.3-0.8l1.6-7.4
		l-5.2,1.7l-0.2-1.8l0.2-5.1l3.7-1.1l0.2,0.1l2.3-7l-1.9,1l-17.2-2.3l-1.5,1.8l1.8,3.8l-1.5,0.5l-9,1.9l-0.4-2.6l-1.1-61.3l2.4-1.3
		l-1-1.8l3.3,2.9l1.3-2.1l-0.8-9.6l-0.4,0.4l-3.3,0.7l0.4-2.3l-2.6-11.1l0.8-1.7l1.6-0.9l2.4-0.8l2.5,0.2l0.9-1.4l2-0.1l4.7-0.6
		l2.1-4.7l3.6,0.2l1.4-5.2l3.3-3.2l-2-3l3.5-3.5l-2.8-2.4l-0.8-0.9l-0.6-3.9l-4.2-7.7l-3.6-2.3l-4.4-2.3l-4.4-0.6l-1.7-3.8l-2,1.4
		l-2.9-1.3l-6.2,1l-3.8-0.1l-3.2,0.6l-3.2,2.8l-4.1,2.7l-2.7,1.5l-4.4,1.2l0.3,1.2l-2,2.3l-1.5,2.8L134.7,208.8z M39.4,367.2
		l71.9-1.5l1.9-1.6l14.9-50.9l11.8-51.7l-2.2-3l-18.3-28.9l-39.3,68.3L39.4,367.2z"/>
</g>
</svg>
